<svg id="Layer_1" data-name="Layer 1" xmlns="http://www.w3.org/2000/svg" xmlns:xlink="http://www.w3.org/1999/xlink" viewBox="0 0 1000 1000"><defs><style>.cls-1{fill:#a8a7a8;}.cls-2{fill:url(#linear-gradient);}.cls-3{fill:url(#linear-gradient-2);}.cls-4{fill:#b62327;}</style><linearGradient id="linear-gradient" x1="391.99" y1="10685.26" x2="426.83" y2="10610.55" gradientTransform="matrix(1, 0, 0, -1, 0, 11276.11)" gradientUnits="userSpaceOnUse"><stop offset="0" stop-color="#f2f2f2"/><stop offset="0.13" stop-color="#e3e4e3"/><stop offset="0.5" stop-color="#c2c3c3"/><stop offset="0.8" stop-color="#afafb0"/><stop offset="1" stop-color="#a8a7a8"/></linearGradient><linearGradient id="linear-gradient-2" x1="-209.81" y1="10905.33" x2="-161.28" y2="10838.54" gradientTransform="matrix(0.98, 0.19, 0.19, -0.98, -1329.47, 11370.55)" gradientUnits="userSpaceOnUse"><stop offset="0" stop-color="#f2f2f2"/><stop offset="0" stop-color="#f1f1f1"/><stop offset="0.25" stop-color="#d2d2d2"/><stop offset="0.48" stop-color="#bbb"/><stop offset="0.7" stop-color="#adadae"/><stop offset="0.89" stop-color="#a8a7a8"/></linearGradient></defs><path class="cls-1" d="M517.77,587.16,489,624.38l-37.22,32.15-1.7-1.69,27.08-35.53-49.07-37.23L401,544.86q-2.55-2.55-5.08,0l-27.07,47.37-13.54,3.39L308,658.22c0,1.69,0,3.39,1.69,5.08,18.62,13.54,108.3,69.37,194.59,69.37,71.07,0,111.68-30.45,135.36-71.06L522.84,587.16C521.15,585.46,519.46,587.16,517.77,587.16Z"/><path class="cls-2" d="M401,551.62l-16.93,66,15.23,13.54-22,62.61c22,10.15,47.37-16.92,67.68-42.31C458.54,634.53,468.7,621,468.7,621L423,585.46Z"/><path class="cls-3" d="M522.84,593.93l-6.77,42.3,18.62,16.92L522.84,725.9c81.22-6.76,108.29-64.29,108.29-64.29Z"/><path class="cls-4" d="M502.54,561.78,643,653.15c6.77-15.23,11.84-38.92,11.84-55.84,0-121.83-211.5-157.36-176-211.51,30.46-44,89.68,23.69,104.91,42.3a5.12,5.12,0,0,0,6.76,0l62.61-84.6a5.15,5.15,0,0,0,0-6.77c-16.92-15.22-89.68-79.52-170.9-77.83-79.52,1.69-135.36,69.37-135.36,140.44C346.87,468.71,438.24,519.47,502.54,561.78Z"/><path class="cls-1" d="M641.29,705.6v35.53h-5.08V705.6H624.37v-5.08h28.76v5.08Z"/><path class="cls-1" d="M687,741.13V712.37h0l-3.38,6.77-6.77,15.22h-5.08L665,719.14l-1.69-6.77h0v28.76h-5.07V700.52h5.07l8.46,18.62,3.39,10.15h0l3.38-10.15L687,700.52h5.08v40.61Z"/></svg>