<?xml version="1.0" encoding="UTF-8" standalone="no"?>
<!-- Created with Inkscape (http://www.inkscape.org/) -->

<svg
   version="1.1"
   id="svg6247"
   width="100"
   height="100"
   viewBox="0 0 100 100"
   xmlns="http://www.w3.org/2000/svg"
   xmlns:svg="http://www.w3.org/2000/svg">
  <defs
     id="defs6251" />
  <g
     id="g6253">
    <path
       style="fill:#050505;stroke:none;stroke-width:0.16"
       d="m 44.408008,16.630565 c -0.2832,-0.53816 -1.43072,-2.0424 -0.85648,-2.616544 0.32592,-0.326064 0.83936,-0.05518 1.17648,0.09814 1.05312,0.479024 1.88992,0.5984 3.04,0.5984 h 13.76 c 0.03504,2.963376 3.75136,0.902576 5.12,0 v -0.159996 l -2.88,-0.48 v -0.16 l 1.12,-1.6 c -0.7776,-0.09166 -1.48096,0.629344 -2.21632,0.482848 -0.71328,-0.142128 -0.53216,-1.203536 -1.46608,-1.371862 -4.23872,-0.763911 -8.9736,0.118102 -13.2776,-0.07728 -1.56224,-0.07092 -3.14,-1.5547559 -4.64,-1.334072 -3.5352,0.520102 -2.68288,3.069859 -0.952,5.020371 0.61968,0.698208 1.10384,1.450512 2.072,1.6 m 3.04,0.32 1.12,1.44 -1.12,0.32 c -0.9984,-2.129328 -3.37184,-1.843984 -4.32,0.16 l 2.84608,1.812096 -0.92608,3.947904 1.76,-0.36136 1.76,0.613216 1.76,-0.614944 1.92,0.363088 c -0.3968,-2.946496 -1.09008,-7.592768 -4.8,-7.68 m -3.84,2.88 c -1.4592,1.524832 -2.6744,3.313952 0.16,3.68 0.04816,-1.12056 0.71776,-2.819696 -0.16,-3.68 m -7.68,8.16 -5.44,5.44 c 2.97008,0 4.05792,-0.47856 6.24,-2.5536 0.23312,-0.2216 1.32272,-1.35504 1.64208,-0.71968 0.216,0.4296 -0.364,1.03856 -0.58992,1.35328 -0.67456,0.93952 -1.6216,1.8816 -1.85216,3.04 1.30144,0.68192 4.27136,1.74 5.69296,0.79552 0.67504,-0.44848 1.05632,-2.11648 1.18704,-2.87552 1.17504,0.18352 1.25056,1.25024 1.53264,2.24 0.85664,3.00592 -1.6184,5.04336 -3.26768,7.36 -0.54896,0.7712 -0.99408,2.28144 0.45568,2.43856 1.4256,0.1544 2.59216,-1.02224 3.22336,-2.11856 0.26416,-0.45872 0.6648,-1.56288 1.26336,-1.65904 1.06464,-0.1712 0.2432,2.18016 0.15264,2.61904 h 4.8 c -0.03584,-0.43952 -0.11792,-0.85072 -0.21968,-1.28 -0.13648,-0.57456 -0.09568,-1.90608 0.7992,-1.07888 0.85744,0.79264 3.28672,5.63632 5.05856,2.82944 0.51632,-0.81776 -0.47904,-1.77168 -0.93888,-2.39056 -1.05536,-1.4208 -3.52032,-3.69376 -3.11648,-5.6 0.1416,-0.66816 0.47872,-3.08688 1.30192,-3.21264 1.04704,-0.16 1.02176,2.41728 1.8184,2.79616 0.95888,0.45616 5.3688,0.27072 5.4416,-1.1984 0.06064,-1.2272 -2.02896,-3.07632 -2.62464,-4.14512 1.57648,-0.39904 2.688,1.7728 3.84,2.59376 1.34928,0.96144 2.91008,0.76624 4.48,0.76624 -1.16752,-1.448 -2.76432,-2.72224 -4.16,-3.9544 -0.22896,-0.20192 -1.49808,-1.0952 -1.01824,-1.48608 0.3584,-0.29184 1.05824,0.29744 1.33824,0.48096 1.18832,0.77904 2.34,1.60896 3.52,2.39936 1.09856,0.736 2.28032,1.79568 3.52,2.26528 0.76304,0.28896 1.75696,0.13488 2.56,0.13488 2.2912,0 5.15312,0.15392 6.80128,-1.84224 0.72192,-0.8744 -1.272,-1.56256 -1.84128,-1.8432 -2.5608,-1.26224 -5.1256,-2.51792 -7.68,-3.795056 -2.35792,-1.178976 -4.69744,-2.391776 -7.04,-3.600864 -1.05616,-0.545136 -2.12016,-1.404048 -3.36,-1.393216 -0.89056,0.0078 -2.27664,0.744592 -2.62352,1.60952 -0.328,0.817936 0.1296,1.601792 -0.89952,2.025184 -1.0688,0.43968 -3.06496,1.210368 -4.17136,1.294688 -0.4864,0.03706 -0.9256,-0.228432 -1.4256,-0.140864 -0.61008,0.106864 -1.12784,0.577888 -1.76,0.577888 -1.37936,0 -2.02784,-0.59688 -3.52,-0.25184 -0.73824,-1.35192 -2.95456,-0.794784 -4.12352,-1.614192 -0.73472,-0.51512 -0.30944,-1.32496 -0.61296,-2.01384 -0.26256,-0.595584 -1.22944,-1.179744 -1.82352,-1.379504 -1.37408,-0.462016 -2.82928,0.621728 -4,1.20704 -3.10048,1.550224 -6.17312,3.168 -9.28,4.700656 -1.873584,0.92416 -3.73104,1.8848 -5.6,2.81936 -0.530432,0.26528 -1.778592,0.64016 -1.95976,1.27856 -0.192368,0.67808 1.190064,1.30624 1.63976,1.55552 1.787424,0.9904 4.549504,1.16128 6.56,0.9208 2.5616,-0.30656 4.7848,-2.50352 6.88,-3.90112 0.9712,-0.647685 1.96272,-1.720965 3.2,-1.493285 m 43.36,12.32 c 0.38144,-0.15872 0.7496,-0.33584 1.12016,-0.5192 2.0936,-1.03568 0.0728,-2.11136 -0.84144,-0.8848 -0.30224,0.40544 -0.2744,0.92512 -0.27872,1.404 m -3.04,1.12 2.4,-1.12 c -0.58208,-1.95872 -2.38496,-0.22944 -2.4,1.12 m 3.84,1.6 h 0.32 c 0.8096,-1.10112 1.58688,-1.56528 1.6,-3.04 -1.8896,0.36432 -2.63568,1.2832 -1.92,3.04 m 2.72,-2.88 c -0.3784,2.06864 1.02048,3.0736 2.0632,4.64 1.09424,1.64384 1.53872,3.78336 0.59232,5.6 -1.35152,2.59456 -5.10592,3.36928 -7.08464,0.94512 -0.56,-0.68608 -0.25424,-1.61328 -0.62256,-2.38512 -0.29008,-0.60816 -0.90192,-0.9936 -1.1776,-1.6 -0.28112,-0.6184 0.05552,-1.41504 -0.0448,-2.08 -0.16752,-1.1096 -0.88896,-1.856 -0.76592,-3.04 -2.42496,2.00944 -0.65888,5.9152 -4,6.88 l -2.56,-5.44 -4.16,1.92 c 0.52624,3.05616 3.0008,3.40688 5.44,4.58704 1.84704,0.8936 3.80608,1.79152 5.6,2.76992 3.10064,1.69104 5.73936,3.64768 9.28,1.35536 5.6304,-3.64512 3.1768,-12.19888 -2.56,-14.15232 m -18.88,4.96 c 1.40464,-0.24192 4.22752,-1.28288 5.21424,-2.34192 0.37952,-0.40736 0.1816,-1.2008 -0.43152,-1.2248 -0.55056,-0.02144 -1.2504,0.44512 -1.74272,0.66448 -0.48336,0.21536 -0.95152,0.45888 -1.44,0.66224 l -0.16,-0.16 1.92,-1.44 c -0.62432,-0.91024 -2.27168,-0.35984 -2.91488,0.42384 -0.53792,0.65536 -0.7232,2.64576 -0.44512,3.41616 m 14.72,-4 c -1.57952,1.11808 -2.42528,1.11952 -1.76,3.2 0.97488,-0.73504 2.56832,-1.8232 1.76,-3.2 m 3.52,1.12 c -0.89616,0.8888 -2.65872,2.23744 -0.96,3.36 0.54048,-1.15888 2.11584,-2.03088 0.96,-3.36 m -4.32,4.48 h 0.16 c 0.856,-1.22736 1.74,-1.58336 1.44,-3.2 -1.55072,0.59968 -2.42048,1.63472 -1.6,3.2 m -36.48,-1.12 c 0.70048,0.70704 1.6864,0.25248 2.56,0.056 1.68752,-0.37984 3.408,-0.53376 5.12,-0.216 -0.4656,0.38256 -1.48784,0.74752 -1.73184,1.3072 -0.30768,0.7056 2.00176,1.81696 2.53184,2.0528 l 0.96,-0.8 -0.48,-1.28 c 1.25952,0.12896 2.87312,0.94608 3.68,1.92 -1.9624,0.21856 -2.76496,2.25072 -3.63808,3.68 -0.28464,0.46592 -0.8368,0.8552 -0.87008,1.44 -0.06496,1.14016 1.06736,1.8064 0.66816,3.04 -0.66176,-0.47632 -1.16,-1.66368 -1.93664,-1.86848 -0.75936,-0.20032 -2.56928,0.02016 -3.08688,0.65152 -0.4696,0.57296 -0.49984,2.83936 0.272,3.20032 0.77312,0.36144 1.6056,-0.43088 2.35152,-0.54336 l -0.16,1.12 c 0.62352,0.21888 0.97392,1.03664 1.60928,1.06848 0.91728,0.04592 1.44496,-0.69376 2.23072,-0.97248 0.67008,-0.23776 1.70528,-0.15056 2.4,-0.04784 2.07152,0.30608 4.27904,2.09552 5.7872,3.43824 0.74432,0.66288 2.60096,1.22112 2.64384,2.4336 0.05072,1.43024 -2.3384,3.65296 -3.29728,4.532 -2.0824,1.90912 -4.3968,4.73552 -5.61376,7.308 -2.11104,-1.6736 0.60224,-5.93472 0.08432,-8.15936 -0.31184,-1.33936 -2.36944,-1.5944 -3.10304,-2.72304 -0.96528,-1.48528 0.58976,-2.9424 -0.20992,-4.29392 -0.45616,-0.77088 -1.21616,-0.21872 -1.84352,-0.5352 -0.53888,-0.27168 -0.69888,-0.88912 -1.32864,-1.13408 -1.24224,-0.48352 -2.65136,-0.3728 -3.83616,-1.08816 -1.3472,-0.81328 -1.36672,-3.04496 -3.20304,-3.18624 l 1.12,2.24 c -2.16352,-0.60704 -4.75936,-3.63712 -4.756,-5.92 0.0021,-1.41792 0.8848,-2.284 0.596,-3.84 l -2.72,2.88 1.6,0.16 c -0.51888,0.95008 -1.55616,0.60432 -2.3704,1.1344 -0.90672,0.59024 -1.60656,2.47856 -1.7896,3.5056 1.63744,-0.39088 3.46416,-0.46736 5.12,-0.16 v 0.32 c -1.33696,0.34592 -4.54832,0.16448 -5.48192,1.20224 -0.70784,0.78688 -0.57232,2.59792 -0.75808,3.59776 2.03728,-0.08768 4.02688,-0.74736 6.08,-0.7976 0.83216,-0.02048 1.77344,-0.16096 2.24,0.6376 -2.02832,0.0168 -4.09808,0.27024 -6.08,0.70784 -0.59184,0.13072 -1.72512,0.21392 -2.07328,0.78064 -0.45744,0.7448 0.07104,2.83424 0.31328,3.63152 1.93872,-0.36528 3.94128,-0.7904 5.92,-0.79984 0.804,-0.0038 1.63104,-0.12864 2.08,0.63984 -2.09616,0.26496 -5.46368,-0.0672 -7.30848,1.06448 -0.87328,0.53568 0.65296,3.66064 1.40528,3.9584 1.69376,0.67008 5.88912,-1.79952 7.0232,0.25712 l -6.56,0.8 c 0.4808,1.25008 2.02496,3.35728 3.36,3.75776 1.49424,0.44816 3.84864,-0.07776 5.44,-0.07776 v 0.64 l -4.16,0.48 v 0.16 c 5.05568,2.804 10.27664,4.29072 16,2.39984 1.33872,-0.44224 3.51424,-1.00592 4.32,-2.23984 l -3.68,-0.64 v -0.32 c 1.61648,-0.3848 3.22544,0.4336 4.8,0.11536 1.4416,-0.29136 3.04128,-2.39744 3.68,-3.63536 l -4.16,-0.96 v -0.32 c 1.46624,-0.34816 3.27392,0.70336 4.6232,0.21712 1.05904,-0.38144 1.81216,-2.9016 2.0968,-3.89712 l -2.88,-0.8 v -0.32 l 3.2,0.16 0.31328,-3.61072 -1.43328,-0.56832 -4,-0.78096 c 0.69744,-1.23392 4.47312,-0.01072 5.76,0 -0.1744,-0.92592 -0.09104,-3.08912 -0.85088,-3.70336 -1.22448,-0.99008 -4.032,-1.07824 -5.54912,-1.24864 -0.84304,-0.09472 -1.93392,-0.01008 -2.4,-0.808 l 7.84,0.8 c -0.35168,-1.03296 -0.80832,-2.70112 -1.644,-3.4384 -1.58592,-1.39936 -5.46368,-1.36272 -7.476,-1.5216 0.47968,-0.82112 1.25744,-0.58544 2.08,-0.5072 1.52992,0.1456 3.11056,0.44144 4.64,0.5072 l -2.88,-3.14192 -6.4,-1.33808 v -0.32 h 4.16 c -1.08688,-1.0984 -3.0168,-1.728 -4.48,-2.14736 -4.22864,-1.212 -8.40784,-0.872 -12.48,0.70736 m 41.44,-1.12 c -0.78096,1.08736 -1.61104,2.00512 -0.96,3.36 1.3896,-1.05296 2.26592,-1.69744 1.28,-3.36 h -0.32 m -63.04,7.04 c 0.892064,0.34608 1.902752,1.00192 2.88,0.99376 0.863856,-0.0074 1.90312,-0.65792 2.70272,-0.09712 1.43536,1.00688 1.06448,3.20624 2.89728,4.06336 l 4.96,-10.72 c -3.57328,-0.66336 -7.806928,0.46016 -10.72,2.58544 -1.060368,0.7736 -2.405456,1.85152 -2.72,3.17456 m 60.16,-5.92 c -0.78528,1.09248 -1.69712,1.9648 -1.12,3.36 1.37728,-0.91008 2.69904,-1.89696 1.12,-3.36 m 4.16,1.12 c -0.85408,1.21264 -1.73184,1.76448 -1.44,3.36 1.7256,-1.0744 2.30496,-1.36288 1.76,-3.36 h -0.32 m -57.6,1.44 v 0.16 c -1.28928,1.09856 -0.587072,2.20256 0.96,2.24 -1.84024,2.32864 -4.621968,-0.97728 -2.237536,-2.21136 0.395744,-0.2048 0.845536,-0.1848 1.277536,-0.18864 m 54.72,0 c -0.844,1.07888 -1.74624,1.35456 -1.76,2.88 1.8272,-0.41792 2.6688,-1.03808 2.08,-2.88 h -0.32 m -19.2,0.64 1.6,1.76 c -0.1488,-1.17056 -0.32736,-1.74496 -1.6,-1.76 m 2.08,0 c 0.37568,1.42016 0.45664,2.62048 2.08,3.04 -0.33504,-1.8048 0.17648,-2.94288 -2.08,-3.04 m 2.72,0.64 c 0.17728,1.40256 0.096,2.60816 1.6,3.2 1.6e-4,-1.64768 0.436,-2.89472 -1.6,-3.2 m 16.48,2.24 c 0.83808,-0.392 1.33824,-1.03872 1.6,-1.92 -1.05008,0.304 -1.5424,0.8136 -1.6,1.92 m -14.08,-0.96 c 0.40976,1.27456 -0.14528,2.4992 1.44,3.04 0.0035,-1.26864 0.58,-3.33296 -1.44,-3.04 m 10.88,0.96 v 0.16 l 2.24,0.32 -0.16,-1.28 -2.08,0.8 m -8.48,0 c 0.18048,1.46032 -0.51264,2.82608 1.28,3.36 0.0042,-1.50128 0.53328,-2.82096 -1.28,-3.36 m -6.72,0.64 1.76,4.16 2.72,-1.12 2.52672,5.44 0.35328,2.24 5.6,-2.4 -0.48,-1.28 -2.24,0.8 1.12,-1.28 c -0.61824,-2.26064 -2.15344,-2.26752 -4,-3.25168 -2.46432,-1.31344 -4.524,-2.89136 -7.36,-3.30832 m 9.12,0.48 c -0.13008,1.64608 -0.79184,3.09776 1.44,3.2 -0.25152,-1.3592 0.10912,-2.5944 -1.44,-3.2 m -57.6,17.76 c 2.682192,-0.91152 6.396736,-3.94304 7.559504,-6.56 0.695136,-1.56448 0.704832,-3.60432 1.018272,-5.28 0.229824,-1.22864 1.336784,-4.79072 -0.291968,-5.50352 -1.948,-0.85248 -3.049824,1.80016 -3.756432,3.10352 -1.683984,3.10624 -2.895648,6.53216 -3.866784,9.92 -0.393072,1.37136 -0.998736,2.89152 -0.662592,4.32 m 59.52,-16.8 c 0.5336,1.46416 0.1536,3.38256 2.4,2.72 -0.5208,-1.26752 -1.20256,-2.03776 -2.4,-2.72 m -56.64,1.12 1.12,1.12 0.64,-1.6 -1.76,0.48 m -2.56,1.6 c 1.319376,0.26528 1.894016,1.51088 3.2,0.48 -0.921088,-1.30656 -2.048288,-1.8688 -3.2,-0.48 m 62.08,-0.8 c 0.38512,1.11936 1.55152,1.36192 2.24,0.32 l -2.24,-0.32 m -52.64,0.32 -0.48,2.72 c 1.36864,-0.65168 1.788,-1.69264 0.48,-2.72 m -11.2,2.4 c 1.223056,0.06352 2.7204,1.12224 3.52,-0.32 -1.45744,-0.42064 -2.616016,-1.61168 -3.52,0.32 m 12.16,0.16 c -0.94608,1.10448 -1.755312,1.24528 -1.76,2.88 1.51088,-0.61968 2.87648,-0.99232 2.08,-2.88 h -0.32 m -13.28,1.92 c 1.427424,0.0304 2.590064,0.67616 3.36,-0.96 -1.331616,0.256 -2.951792,-1.056 -3.36,0.96 m 11.04,3.2 c 1.87616,-0.36384 2.87392,-0.21072 2.88,-2.4 -1.30976,0.51568 -2.714224,0.79296 -2.88,2.4 m -12,-0.8 0.16,0.16 c 1.263312,-0.45696 2.692832,0.11568 3.04,-1.6 -1.459088,0.15424 -2.66224,-0.27056 -3.2,1.44 m 61.12,0.32 c 0.68752,1.24592 2.3208,0.03328 3.2,-0.48 l -0.16,-0.64 -3.04,1.12 m -61.44,2.24 c 1.386032,-0.444 2.583248,-0.36464 3.04,-1.92 -1.442576,0.18224 -2.940256,0.09824 -3.04,1.92 m 15.68,-0.32 1.6,0.32 0.16,-0.16 c -0.37856,-1.536 -1.42928,-2.24144 -1.76,-0.16 m -4.48,0.64 c 1.823472,1.6e-4 3.02112,0.48704 3.2,-1.76 -1.392128,0.36832 -2.54776,0.28144 -3.2,1.76 m -11.2,2.08 c 1.26432,-0.42064 2.668384,-0.49072 2.72,-2.08 -1.416192,0.32368 -2.678096,0.34656 -2.72,2.08 m 14.56,-0.16 c 1.26208,-0.15952 2.57696,-0.10208 2.88,-1.6 -1.5928,-0.0328 -2.78576,-0.45712 -2.88,1.6 m -4.96,-0.16 c 1.569632,0.59216 3.1388,1.03952 3.36,-1.12 -1.31048,0.30112 -2.549136,-0.30224 -3.36,1.12 m 8,0.16 c 0,1.39584 0.17952,4.97616 2.24,4.64 -0.35952,-1.25776 -1.13504,-3.90992 -2.24,-4.64 m -15.04,0.16 c -1.267584,0.73712 -2.546944,0.98192 -2.24,2.72 1.05976,-0.63744 2.898768,-1.13536 2.24,-2.72 m 14.24,0 c -1.28032,0.83376 -2.82688,0.99552 -1.92,2.88 1.03136,-0.62096 2.50672,-1.44096 1.92,-2.88 m -9.28,0.96 v 0.32 c 1.538912,0.6864 2.827856,1.44656 3.52,-0.64 -1.391632,-0.01248 -2.239296,-0.48464 -3.52,0.32 m -2.56,5.28 c 1.583248,6.84032 7.697872,9.35712 13.76,11.35984 1.71664,0.5672 3.49696,1.04656 5.28,1.3464 0.52544,0.0883 1.60528,0.0768 1.88784,0.624 0.30992,0.60064 -0.25872,1.75824 -0.44784,2.34976 4.09856,1.21152 9.81088,-1.97776 11.68,-5.6 -4.14192,-0.0342 -7.51472,-2.2608 -11.36,-3.36 0.15536,3.56496 3.28624,3.67808 6.24,3.68 -0.86816,1.06768 -4.27216,1.26224 -5.59296,0.90912 -0.93408,-0.24976 -1.08672,-1.92544 -1.92768,-2.54352 -2.67472,-1.96528 -7.6664,-3.57632 -9.22784,-6.68576 -0.38288,-0.76256 0.26496,-1.33856 0.09952,-2.07984 -0.25264,-1.13296 -0.94496,-2.40816 -1.35664,-3.52 -0.1632,-0.44048 -0.10784,-1.44992 -0.605264,-1.64912 -1.291072,-0.51712 -1.936768,0.76544 -2.69864,1.42224 -1.544048,1.33088 -3.802288,3.07312 -5.730496,3.74688 m 0.48,-3.52 c 1.49656,0.99024 2.406,1.61584 3.52,-0.16 -1.286784,-0.26896 -2.505312,-1.07008 -3.52,0.16 m -2.72,-0.48 c -1.064176,0.95536 -2.452528,1.38752 -1.76,3.04 h 0.16 c 0.774864,-0.96208 2.626832,-1.53664 1.6,-3.04 m 14.08,0 c -0.95504,1.328 -1.85376,1.66352 -0.96,3.36 0.95488,-1.05856 1.7304,-1.90032 1.28,-3.36 h -0.32 m -12.8,1.12 c 0.168304,1.92784 1.361664,2.48576 2.56,0.8 l -2.56,-0.8 m 13.6,0.96 c -0.57968,1.50688 -1.60816,2.20976 0,3.52 0.2832,-1.18144 1.53632,-2.71376 0,-3.52 m -15.52,3.36 c 0.806928,-1.0504 1.773568,-1.58768 1.44,-3.04 -1.273904,0.56432 -2.883104,1.7064 -1.44,3.04 m 16.96,-1.76 c -0.1376,1.34512 -0.8304,2.02432 -0.16,3.36 h 0.32 c 0.78176,-1.42592 1.48144,-2.324 -0.16,-3.36 m -15.04,0.8 c -0.718224,1.50816 -2.015824,1.54176 -0.96,3.36 h 0.16 c 0.557504,-0.96768 2.23816,-2.37472 0.8,-3.36 m 16.64,0.96 c -0.12672,1.2376 -1.20944,2.55984 0.32,3.36 0.38176,-1.29792 1.61088,-2.68784 -0.32,-3.36 m -19.52,0.32 -2.24,2.56 h 3.52 l -1.28,-2.56 m 4,0.96 c -1.009408,1.15232 -2.247232,2.09776 -0.64,3.36 0.409344,-1.20448 1.746752,-2.08736 0.64,-3.36 m 17.28,0.64 c -0.19152,0.44432 -0.44224,0.84672 -0.6552,1.28 -1.2376,2.5184 2.93824,1.11104 1.34896,-0.77616 -0.2104,-0.25008 -0.41072,-0.36016 -0.69376,-0.50384 m -16.16,1.44 c -0.722752,1.15568 -2.178032,2.44608 -0.32,3.36 0.440768,-1.3832 0.98432,-1.85296 0.64,-3.36 h -0.32 m 17.44,0.96 -0.96,1.28 c 0.40048,0.1664 0.96752,0.56272 1.41616,0.48096 1.06768,-0.19456 -0.0072,-1.52752 -0.45616,-1.76096 m -16,1.12 c -0.890784,1.34624 -1.554544,2.39776 0,3.52 0.13896,-1.2808 1.277296,-2.45616 0,-3.52 m 1.44,1.92 c -0.360384,1.51728 -1.353552,2.74544 0.64,3.52 0.05634,-1.29232 0.851088,-2.78432 -0.64,-3.52 m 1.92,1.44 c -0.343008,1.65744 -1.166464,2.90592 0.96,3.52 0.0041,-1.4768 0.409936,-2.53104 -0.96,-3.52 m 1.92,1.28 c 0.248352,1.35792 -0.470896,3.51696 1.76,3.04 -0.2632,-1.41792 -0.13152,-2.556 -1.76,-3.04 m 2.4,0.64 c 0.35328,1.90288 -0.0584,2.87968 2.24,2.88 -0.52896,-1.29824 -0.648,-2.59168 -2.24,-2.88 m 2.24,0.32 c 0.7096,1.8296 0.74544,2.728 2.88,2.24 -0.71216,-1.27904 -1.32576,-2.22592 -2.88,-2.24 m 2.72,0.16 c 0.58208,1.58576 1.39536,1.58912 2.72,0.8 z"
       id="path6321" />
  </g>
</svg>
