<?xml version="1.0" encoding="UTF-8" standalone="no"?>
<!-- Created with Inkscape (http://www.inkscape.org/) -->

<svg
   xmlns:dc="http://purl.org/dc/elements/1.1/"
   xmlns:cc="http://creativecommons.org/ns#"
   xmlns:rdf="http://www.w3.org/1999/02/22-rdf-syntax-ns#"
   xmlns:svg="http://www.w3.org/2000/svg"
   xmlns="http://www.w3.org/2000/svg"
   xmlns:sodipodi="http://sodipodi.sourceforge.net/DTD/sodipodi-0.dtd"
   xmlns:inkscape="http://www.inkscape.org/namespaces/inkscape"
   width="150mm"
   height="200mm"
   viewBox="0 0 149.99999 200.00001"
   version="1.1"
   id="svg8"
   sodipodi:docname="mark.svg"
   inkscape:version="0.92.4 (5da689c313, 2019-01-14)">
  <defs
     id="defs2" />
  <sodipodi:namedview
     id="base"
     pagecolor="#ffffff"
     bordercolor="#666666"
     borderopacity="1.0"
     inkscape:pageopacity="0.0"
     inkscape:pageshadow="2"
     inkscape:zoom="0.7"
     inkscape:cx="227.58651"
     inkscape:cy="165.94832"
     inkscape:document-units="mm"
     inkscape:current-layer="g905"
     showgrid="false"
     inkscape:window-width="1920"
     inkscape:window-height="1017"
     inkscape:window-x="-8"
     inkscape:window-y="1072"
     inkscape:window-maximized="1"
     fit-margin-top="0"
     fit-margin-left="0"
     fit-margin-right="0"
     fit-margin-bottom="0" />
  <metadata
     id="metadata5">
    <rdf:RDF>
      <cc:Work
         rdf:about="">
        <dc:format>image/svg+xml</dc:format>
        <dc:type
           rdf:resource="http://purl.org/dc/dcmitype/StillImage" />
        <dc:title></dc:title>
      </cc:Work>
    </rdf:RDF>
  </metadata>
  <g
     inkscape:label="Layer 1"
     inkscape:groupmode="layer"
     id="layer1"
     transform="translate(-33.989515,-57.66614)">
    <g
       id="g905">
      <g
         id="g854"
         transform="translate(15.993808,-12.945157)">
        <path
           inkscape:connector-curvature="0"
           id="path923"
           d="m 77.749706,257.50445 c -1.417516,-0.22793 -2.077545,-0.50104 -7.431395,-3.07498 -4.30276,-2.06861 -7.902252,-4.73892 -11.486981,-8.52169 -2.121982,-2.23921 -2.883562,-3.27233 -3.966729,-5.38103 -1.234828,-2.40396 -1.896126,-3.57551 -5.000055,-8.85803 -1.790239,-3.04678 -3.068532,-8.91606 -3.741149,-17.1775 -0.400485,-4.91897 -0.519065,-5.16841 -3.021564,-6.35595 -1.550802,-0.73592 -2.173839,-1.20183 -2.730681,-2.04203 -0.670866,-1.01224 -0.732011,-1.34046 -0.872109,-4.68137 l -0.150662,-3.59282 -1.519175,-3.66163 c -1.949647,-4.69918 -3.615764,-11.04985 -3.79424,-14.46233 -0.110502,-2.11282 -0.04008,-2.78304 0.441749,-4.204 0.83667,-2.46744 2.271341,-5.18543 3.067775,-5.8119 0.97839,-0.7696 3.395158,-1.62576 4.589199,-1.62576 3.388938,0 4.216337,-2.133 2.822415,-7.27605 -0.354965,-1.30968 -1.247634,-4.58256 -1.983708,-7.27306 -0.736074,-2.69049 -1.340177,-5.3694 -1.34245,-5.95312 -0.0023,-0.58372 -0.176626,-1.77569 -0.38745,-2.64882 -0.210824,-0.87312 -0.387558,-2.02144 -0.392742,-2.55181 -0.02239,-2.2909 2.466576,-8.01853 4.648661,-10.69755 0.605637,-0.74355 1.80573,-2.41241 2.666874,-3.70857 0.861144,-1.29616 2.242607,-3.28965 3.069917,-4.42998 1.632769,-2.25054 2.274027,-3.9297 2.972285,-7.78303 0.356557,-1.96767 0.831149,-3.14704 3.167264,-7.87072 1.588921,-3.21284 2.938334,-6.32027 3.19947,-7.36775 0.599337,-2.404051 1.320223,-3.23207 3.143422,-3.610564 0.848122,-0.17607 1.891141,-0.645473 2.570314,-1.156751 2.394603,-1.802647 6.591538,-4.439292 7.810333,-4.906695 0.698588,-0.267906 2.460787,-0.750305 3.915995,-1.071997 9.679597,-2.139795 10.929936,-2.248226 14.155209,-1.227561 1.616692,0.511616 2.355758,0.603141 3.988708,0.493959 1.102381,-0.07371 2.637618,0.0018 3.411638,0.167799 2.301336,0.493549 3.222716,-0.487225 2.241066,-2.385526 -0.56755,-1.09752 -0.38995,-2.061354 0.50143,-2.721251 0.61658,-0.456459 1.08971,-0.547366 2.65736,-0.510585 4.50162,0.105622 8.06532,1.770865 12.34233,5.767316 1.9298,1.803206 2.63173,2.221574 5.40441,3.221131 2.34716,0.846152 6.94369,4.895217 9.72267,8.564645 0.82528,1.08973 2.75268,3.14524 4.28311,4.56781 5.11387,4.75347 7.71513,8.94637 9.66457,15.57809 0.57093,1.94219 1.52335,4.90048 2.1165,6.57397 0.94939,2.67859 1.07859,3.32209 1.07962,5.37731 8e-4,1.79069 -0.15293,2.79367 -0.66028,4.30505 -0.76496,2.27875 -0.83239,3.6919 -0.24224,5.07666 0.23057,0.54103 1.07223,2.82916 1.87037,5.08473 l 1.45114,4.10104 -0.10264,3.57188 -0.10265,3.57187 -1.38546,3.57188 c -0.76201,1.96453 -2.40497,5.63599 -3.65104,8.15881 -2.07587,4.20287 -2.37427,4.66503 -3.56372,5.51957 -1.52513,1.09569 -1.69778,1.3704 -1.95987,3.11826 -0.23936,1.59633 -0.73044,2.83093 -1.32101,3.32105 -0.25328,0.2102 -1.15123,0.38497 -2.12435,0.41347 -3.32158,0.0973 -6.68972,2.36832 -9.5752,6.45634 -2.28658,3.23953 -2.9001,3.58239 -3.71345,2.07523 -0.90674,-1.68022 -1.19634,-1.83108 -3.16439,-1.64851 -1.37017,0.12712 -2.02985,0.0615 -2.84258,-0.28275 -0.58208,-0.24654 -1.99614,-0.74693 -3.14235,-1.11196 -1.76833,-0.56316 -2.32943,-0.6319 -3.70416,-0.45377 -1.98544,0.25726 -3.24785,0.15899 -4.1867,-0.32591 -0.8536,-0.44086 -2.22571,-0.48438 -2.47653,-0.0786 -0.36977,0.59831 -2.6293,1.82622 -3.36049,1.82622 -1.00815,0 -1.640366,-0.35975 -3.325571,-1.89234 -2.073672,-1.88588 -3.106204,-1.65543 -3.736753,0.834 -0.468083,1.84802 -0.837052,2.64384 -1.354048,2.92053 -1.333098,0.71345 -2.545559,-0.13007 -3.817565,-2.65594 -1.424397,-2.82848 -2.543484,-3.40426 -4.010234,-2.06331 -0.611426,0.55899 -4.173233,6.31682 -4.886849,7.89982 -0.236731,0.52514 -0.878112,2.17357 -1.425297,3.6632 -0.865331,2.35572 -1.216192,2.94956 -2.694417,4.56035 -2.155534,2.34885 -2.137693,2.68561 0.208286,3.9316 0.958966,0.50933 2.496309,1.55855 3.416321,2.33161 0.920012,0.77306 2.109306,1.62827 2.642873,1.90048 1.21874,0.62176 5.046985,1.7303 7.783669,2.25391 2.086594,0.39923 4.387456,1.3144 8.62294,3.42977 1.236925,0.61777 2.880615,1.27227 3.652645,1.45446 1.91551,0.45202 4.3148,2.10567 5.29717,3.65096 1.56415,2.46041 1.69221,4.72456 0.41762,7.38367 -0.52686,1.09915 -0.89497,1.48571 -1.85931,1.95255 -1.15169,0.55752 -1.40511,0.57454 -6.00891,0.40368 -5.9513,-0.22088 -6.326244,-0.0991 -7.264785,2.35871 -0.833625,2.18309 -0.97967,2.46483 -2.037977,3.93149 -0.536194,0.74309 -0.927703,1.59988 -0.927703,2.03022 0,1.15946 1.066197,2.19591 2.820945,2.74226 0.849575,0.26452 2.368566,0.82865 3.375539,1.25362 1.006972,0.42498 2.673847,0.89131 3.704171,1.03631 2.13826,0.30091 6.08199,1.43233 6.96653,1.99862 0.86153,0.55157 0.78042,1.7272 -0.1959,2.83916 -1.62737,1.85348 -5.09946,3.23743 -13.010512,5.18591 -2.377226,0.58551 -5.572388,1.42768 -7.100356,1.8715 -3.00363,0.87243 -6.707083,1.20227 -9.128126,0.81297 z M 65.46217,214.91805 c 2.126689,-0.60818 3.398165,-1.2457 3.615862,-1.81301 0.09056,-0.23599 0.02881,-1.2212 -0.137213,-2.18936 -0.365152,-2.1294 -0.129664,-3.17587 1.072208,-4.76472 0.47163,-0.62348 1.035905,-1.37689 1.25394,-1.67425 0.228322,-0.31138 0.460161,-1.40798 0.546719,-2.58598 0.140486,-1.91191 0.237694,-2.17471 1.490096,-4.02854 1.630516,-2.41352 2.066277,-4.00794 1.836921,-6.72122 -0.204486,-2.41908 -0.874975,-4.00635 -2.080882,-4.92614 -1.204807,-0.91895 -1.939481,-0.89986 -2.437567,0.0633 -0.562729,1.0882 -1.846321,2.0856 -3.137183,2.43772 -1.365491,0.37247 -4.577112,0.1877 -9.446824,-0.5435 -3.96696,-0.59565 -6.639356,-0.68675 -7.448127,-0.25391 -0.724022,0.38749 -1.283124,1.82133 -1.283124,3.29064 0,2.14098 1.059637,3.46176 3.606908,4.49581 2.368325,0.96141 6.182676,4.1547 6.182676,5.17599 0,0.27079 -0.55039,1.11206 -1.223088,1.86949 -1.552773,1.74833 -2.054322,2.92095 -1.835268,4.29084 0.271586,1.69841 2.663893,6.06882 3.992214,7.29323 1.029139,0.94862 1.324041,1.07937 2.43451,1.07937 0.694939,0 2.043687,-0.2231 2.997222,-0.49579 z m 26.15599,-36.93151 c 0.691359,-0.35034 2.361679,-1.37588 3.711824,-2.27898 3.420642,-2.28803 4.402735,-2.60888 8.850756,-2.89155 2.05231,-0.13042 5.83147,-0.37005 8.39814,-0.53251 7.45081,-0.47159 9.79292,0.242 13.58667,4.13963 2.13341,2.19181 2.16766,2.21363 3.47559,2.21363 1.04243,0 1.65239,-0.19834 2.89288,-0.94069 2.26962,-1.3582 2.79703,-1.96341 2.95837,-3.39476 0.16675,-1.47946 -0.53998,-2.71684 -2.44183,-4.27527 -1.96248,-1.6081 -2.57069,-2.90047 -2.71306,-5.7649 -0.0992,-1.99624 0.006,-2.96383 0.5919,-5.46813 1.4075,-6.01121 1.10772,-9.10704 -1.52692,-15.76802 -0.80031,-2.02337 -1.59227,-4.33215 -1.75991,-5.13062 -0.16764,-0.79847 -0.47515,-1.71176 -0.68335,-2.02952 -0.43911,-0.67016 -2.07576,-1.19332 -5.66355,-1.81035 -2.69383,-0.46329 -3.27969,-0.42015 -7.16575,0.52775 -1.38245,0.33721 -3.65221,0.80167 -5.04391,1.03213 -1.3917,0.23046 -3.23717,0.67786 -4.10104,0.99422 -1.13875,0.41702 -2.48017,0.62266 -4.87797,0.7478 -1.819012,0.0949 -4.633393,0.4507 -6.25418,0.79059 l -2.946887,0.61797 -3.270822,-0.58818 c -1.798952,-0.3235 -5.533009,-1.00688 -8.297905,-1.51861 -2.764896,-0.51174 -6.27724,-1.09558 -7.805209,-1.29743 -1.527968,-0.20185 -3.4925,-0.54433 -4.365625,-0.76107 -0.873125,-0.21673 -2.191147,-0.3983 -2.928938,-0.40349 -1.158554,-0.008 -1.489503,0.11732 -2.427486,0.92019 -2.336844,2.00026 -3.750832,4.69782 -4.70092,8.96828 -0.365968,1.64496 -0.421244,2.74338 -0.284963,5.66262 0.09299,1.99198 0.221815,4.83274 0.286269,6.31281 l 0.11719,2.69103 -1.354078,2.07147 c -2.797098,4.279 -2.723389,4.4735 1.767926,4.66505 2.519066,0.10744 3.584958,0.28037 5.159375,0.83705 1.091406,0.3859 3.829844,1.17535 6.085417,1.75434 3.001441,0.77044 4.899263,1.44129 7.07807,2.50196 2.617804,1.27438 3.311298,1.76674 5.747274,4.08043 4.478542,4.25371 6.641503,4.9797 9.906652,3.32513 z"
           style="fill:#d0d0d0;stroke-width:0.26458335" />
        <path
           inkscape:connector-curvature="0"
           id="path921"
           d="m 79.866373,256.78473 c -4.359797,-0.61886 -10.996859,-3.4871 -14.847029,-6.4162 -2.909607,-2.21356 -3.462157,-2.73431 -5.92702,-5.58594 -1.994236,-2.30715 -2.431674,-3.04239 -5.327392,-8.95424 -4.268508,-8.71453 -4.635663,-10.41706 -3.931197,-18.2293 0.272655,-3.02363 0.619328,-4.42422 1.327446,-5.36299 0.847269,-1.12325 1.54958,-0.46144 3.414153,3.21727 1.726093,3.40549 2.788787,4.72301 3.80952,4.72301 0.331564,0 1.252421,-0.40679 2.046348,-0.90398 3.363444,-2.10632 4.221049,-2.53263 6.726487,-3.34366 3.962334,-1.28263 4.738859,-2.36934 3.732072,-5.22288 -0.618485,-1.75297 -0.09754,-2.96754 1.269944,-2.96083 0.974249,0.005 4.692331,0.90923 5.487777,1.33495 0.303966,0.16267 1.344287,0.86687 2.31182,1.56487 1.868567,1.34804 5.16023,2.7548 8.638321,3.69178 4.008327,1.07982 8.636771,2.67014 10.401841,3.57403 0.972947,0.49825 2.443246,1.09824 3.267326,1.33332 3.61439,1.03102 6.0954,4.35308 5.6337,7.5435 -0.31394,2.16947 -1.09846,3.06376 -3.11151,3.54688 -0.40809,0.0979 -2.77137,-0.0135 -5.251743,-0.24755 -6.681576,-0.6306 -7.786323,-0.24693 -8.210026,2.85126 -0.2163,1.58161 -0.495824,2.13583 -2.147541,4.25803 -1.189498,1.52831 -0.422098,5.39092 1.237633,6.22945 1.150689,0.58135 8.65831,2.94464 9.358967,2.94606 2.04387,0.004 4.29948,1.3435 4.29948,2.55298 0,2.01928 -1.79676,2.93021 -9.657293,4.8961 -2.328334,0.5823 -5.602552,1.45361 -7.276042,1.93624 -2.996835,0.86427 -5.719146,1.24884 -7.276042,1.02784 z M 73.01568,241.8388 c 0.754703,-0.28237 1.694019,-0.83523 2.08737,-1.22858 0.608129,-0.60813 0.694309,-0.87414 0.57573,-1.77713 -0.188375,-1.43453 -1.767276,-2.84828 -5.021204,-4.49601 -2.238706,-1.13364 -2.622217,-1.24768 -3.668419,-1.09079 -0.7145,0.10714 -1.46009,0.44572 -1.919399,0.87162 -0.718793,0.6665 -0.744627,0.77313 -0.601355,2.48206 0.166494,1.98594 0.798253,3.44086 1.982451,4.56553 1.642581,1.56 3.645795,1.76545 6.564826,0.6733 z M 42.695209,204.70159 c -0.38879,-0.46846 -0.173125,-1.194 0.354916,-1.194 0.205876,0 0.441995,0.25879 0.524708,0.57509 0.256508,0.98088 -0.271111,1.35212 -0.879624,0.61891 z m -2.262475,-10.09411 c -0.990015,-1.06824 -1.929122,-3.27488 -2.662508,-6.25615 -0.365727,-1.48671 -1.015195,-3.9115 -1.443262,-5.38843 -1.209211,-4.17205 -1.024599,-6.57038 0.784442,-10.19085 0.837055,-1.67521 1.949306,-2.48949 3.736188,-2.73525 1.12349,-0.15452 1.520838,-0.0795 2.618896,0.4947 0.977313,0.51102 1.352639,0.59828 1.531934,0.35616 0.518131,-0.69969 2.006076,-5.13176 1.977636,-5.89068 -0.01664,-0.44413 -0.503146,-2.34913 -1.081117,-4.23334 -1.912499,-6.23483 -3.225826,-11.29787 -3.491856,-13.46154 -0.144386,-1.17432 -0.375816,-2.55185 -0.514288,-3.06117 -0.418094,-1.53782 -0.285236,-2.93492 0.490628,-5.15938 0.882526,-2.53027 2.50703,-5.38277 4.276126,-7.50856 0.711061,-0.85442 1.73739,-2.25297 2.280731,-3.10789 0.543341,-0.85491 1.633825,-2.38415 2.423297,-3.3983 1.882042,-2.41767 2.286417,-3.25507 3.22156,-6.67136 1.101578,-4.02431 1.727378,-5.73163 2.811352,-7.66996 0.518651,-0.92743 1.160697,-2.30859 1.42677,-3.06925 0.266073,-0.76066 1.27472,-3.00806 2.241433,-4.99423 l 1.757664,-3.611216 1.45092,-0.686977 c 0.798004,-0.377837 1.9549,-1.147569 2.570879,-1.710515 1.167583,-1.067057 4.893366,-3.445908 7.252841,-4.630818 1.446755,-0.72655 6.862869,-2.017108 8.506519,-2.026944 0.534061,-0.0032 1.506802,-0.255516 2.161646,-0.560712 0.69655,-0.324633 1.972985,-0.610271 3.075958,-0.688331 1.575803,-0.111523 2.238571,-0.01579 4.036878,0.583101 1.879574,0.625955 2.395395,0.693679 4.080608,0.535762 1.432291,-0.134216 2.295838,-0.07185 3.35333,0.242195 2.031161,0.603189 3.233461,0.550196 3.910311,-0.17235 0.75981,-0.811109 1.12208,-1.861116 1.12208,-3.25227 0,-1.607164 0.74178,-2.099442 2.87237,-1.906247 2.98363,0.270546 6.19318,2.007737 9.63177,5.213265 2.0464,1.907697 2.8806,2.426028 5.17471,3.215315 0.7992,0.274966 1.88114,0.825547 2.40431,1.223514 2.35015,1.78772 5.2378,4.546885 6.69133,6.393608 0.87067,1.10619 3.1601,3.55907 5.08762,5.45084 5.01413,4.92113 7.36232,8.58321 8.76463,13.66876 0.92,3.33642 1.74821,5.97421 2.76346,8.80142 1.12197,3.1244 1.16992,5.70977 0.15946,8.59834 -0.88759,2.53734 -0.86579,3.52686 0.13294,6.0324 0.45106,1.13158 1.35617,3.57931 2.01135,5.4394 l 1.19125,3.382 -0.11365,3.23259 c -0.11015,3.13327 -0.15529,3.34065 -1.46916,6.74977 -1.74378,4.52461 -3.57013,7.97037 -5.15111,9.71857 -1.05131,1.16252 -3.49544,2.75193 -5.82159,3.78577 -0.10914,0.0485 -0.20381,-0.66586 -0.21037,-1.5875 -0.007,-0.92163 -0.15539,-2.00529 -0.33073,-2.40814 -0.17534,-0.40284 -1.40728,-1.83159 -2.73765,-3.175 -2.04796,-2.06802 -2.48409,-2.66291 -2.84427,-3.87963 -0.55291,-1.86778 -0.53743,-2.59782 0.13389,-6.3144 0.93641,-5.18421 0.47276,-8.58926 -2.07888,-15.26727 -1.10958,-2.90393 -1.21146,-3.36661 -1.19332,-5.41932 0.0199,-2.25089 -0.18698,-3.02872 -0.96834,-3.64076 -0.64781,-0.50743 -2.76201,-1.06679 -6.21135,-1.64333 -3.99015,-0.66695 -4.95674,-0.54701 -13.878,1.72203 -5.79478,1.47384 -7.02792,1.70534 -9.084045,1.70534 -1.549697,0 -3.132352,0.19305 -4.539833,0.55378 -2.360057,0.60486 -4.162078,0.67368 -6.478262,0.24742 -2.437728,-0.44863 -14.341542,-2.33943 -15.923113,-2.52923 -0.800364,-0.0961 -2.69218,-0.57997 -4.204033,-1.07539 -3.052162,-1.00015 -4.402074,-1.11051 -5.751405,-0.47021 -1.224624,0.58112 -3.800168,3.43959 -4.815423,5.34441 -1.993169,3.73956 -3.400039,9.64297 -3.983346,16.71464 -0.330852,4.01105 -0.5232,4.71336 -1.888365,6.89489 -2.246335,3.58964 -2.473558,4.84182 -1.123579,6.1918 1.021912,1.02191 2.124232,1.09489 4.578879,0.30314 2.780284,-0.89678 4.953761,-0.9064 7.958716,-0.0352 1.24187,0.36003 3.796565,1.01997 5.677104,1.46653 1.88054,0.44657 4.030602,1.09166 4.777921,1.43356 2.011394,0.92019 5.22719,3.15788 7.743497,5.38825 2.777625,2.46199 5.008729,3.56928 7.480007,3.71229 2.185286,0.12647 3.476839,-0.41219 7.525467,-3.13857 1.540346,-1.03729 3.294684,-2.06135 3.898533,-2.27569 2.12263,-0.75345 14.18123,-1.39867 17.63436,-0.94355 3.4747,0.45796 4.84621,1.15282 7.40206,3.75018 1.87325,1.90368 2.46554,2.34481 3.49688,2.60442 2.21786,0.5583 2.71385,0.43326 5.72778,-1.44401 1.55109,-0.96611 3.00813,-1.91861 3.23787,-2.11666 0.22974,-0.19806 0.55716,-0.3601 0.7276,-0.3601 0.45785,0 0.39432,3.03801 -0.0828,3.9607 -0.41215,0.79702 -2.02066,1.67997 -4.5746,2.5111 -1.07414,0.34956 -1.62241,0.73811 -2.38125,1.68752 -1.68302,2.1057 -4.70656,5.06984 -5.17144,5.06984 -0.24368,0 -0.89134,-0.40499 -1.43924,-0.9 -1.24316,-1.12311 -1.42582,-1.16108 -3.34833,-0.69605 -1.47221,0.35611 -1.69937,0.3417 -3.83646,-0.24357 -2.84153,-0.77818 -4.29243,-0.91973 -6.08597,-0.59374 -1.68526,0.3063 -2.74411,0.0631 -4.45796,-1.02375 -1.53807,-0.97542 -2.06329,-0.97136 -3.97498,0.0307 -1.76488,0.92512 -2.06523,0.87993 -4.280833,-0.64414 -0.730763,-0.50267 -1.677733,-0.99062 -2.104379,-1.08433 -1.604288,-0.35236 -3.140798,1.19898 -3.597225,3.63195 -0.441838,2.3552 -1.497701,2.3023 -2.867094,-0.14363 -1.278038,-2.28277 -2.060004,-2.96068 -3.375321,-2.92619 -1.326166,0.0348 -1.960127,0.60467 -3.845264,3.45672 -2.858003,4.3239 -4.663673,4.39185 -5.976282,0.22489 -0.512143,-1.62584 -0.828246,-2.11024 -2.447084,-3.74989 -2.677869,-2.71232 -2.882821,-2.72295 -7.012363,-0.36363 -0.683853,0.3907 -1.40997,0.52672 -2.811958,0.52672 -1.152792,0 -2.289675,0.16839 -2.914547,0.43169 -2.14136,0.9023 -5.776409,0.28481 -8.985725,-1.52641 l -1.434329,-0.80949 -1.322563,0.47559 -1.322563,0.47559 -1.002274,-0.9787 c -0.55125,-0.53828 -1.152156,-0.97869 -1.335347,-0.97869 -0.554399,0 -1.071083,1.65335 -1.75608,5.61931 -0.623578,3.61035 -1.50465,6.83839 -2.059011,7.54371 -0.433675,0.55177 -1.504976,0.37212 -2.190244,-0.3673 z"
           style="fill:#b7b7b7;stroke-width:0.26458335" />
        <path
           inkscape:connector-curvature="0"
           id="path919"
           d="m 78.725288,255.51286 c -4.197442,-0.79543 -10.119707,-3.62032 -14.210673,-6.77843 -3.710308,-2.86424 -5.872524,-5.41484 -7.723861,-9.11121 -0.801729,-1.60073 -2.333361,-4.51776 -3.403627,-6.48229 -3.180762,-5.83847 -3.46812,-7.29013 -2.832073,-14.30697 0.277529,-3.06168 0.80598,-4.74303 1.490741,-4.74303 0.575937,0 1.365664,1.07282 2.676739,3.63628 1.560584,3.05131 2.372387,3.80973 3.746234,3.49988 0.538944,-0.12155 1.942476,-0.86985 3.11896,-1.66287 2.710222,-1.82687 3.28237,-2.10952 5.710936,-2.82134 4.025112,-1.17977 5.464003,-2.63343 4.793152,-4.84237 -0.677569,-2.23106 -0.678818,-2.8097 -0.0066,-3.05837 0.675016,-0.2497 3.794969,0.252 4.793192,0.77077 0.333692,0.17342 1.38062,0.87972 2.326505,1.56956 0.945885,0.68985 2.076979,1.43231 2.513542,1.64993 1.193295,0.59485 5.873901,2.15338 10.186459,3.39186 2.166323,0.62212 4.988274,1.66362 6.482292,2.39242 1.455208,0.70986 3.140814,1.41233 3.745794,1.56105 1.66449,0.40916 3.53701,1.80305 4.26339,3.17361 0.52155,0.98409 0.6134,1.48354 0.52948,2.87917 -0.0905,1.50555 -0.19356,1.77077 -0.95083,2.44739 -0.78051,0.69739 -1.01507,0.75868 -2.89565,0.7566 -1.12549,-0.001 -3.412612,-0.12319 -5.082484,-0.27098 -4.984012,-0.44111 -7.144251,0.30605 -7.156639,2.47526 -0.01071,1.87827 -0.420835,3.02665 -1.571831,4.40139 -1.372881,1.63976 -1.702533,2.72462 -1.331288,4.38119 0.335306,1.4962 0.818393,2.47547 1.546042,3.13398 0.816258,0.7387 8.49874,3.36433 10.9535,3.74356 1.41539,0.21866 2.44532,1.16633 2.22436,2.04671 -0.34518,1.3753 -1.61133,1.86098 -11.640596,4.46522 -7.792853,2.02352 -9.414246,2.24798 -12.295166,1.70203 z m -6.371759,-12.74179 c 3.114688,-0.98872 4.597138,-2.74714 3.955373,-4.69171 -0.390967,-1.18464 -1.229773,-1.93069 -4.48086,-3.98535 -2.99947,-1.89564 -4.062391,-2.23509 -5.577409,-1.78118 -3.001933,0.8994 -3.568343,3.61234 -1.592238,7.62638 0.905258,1.83884 1.873199,2.67003 3.682407,3.16216 1.287441,0.3502 2.072579,0.28557 4.012727,-0.3303 z M 40.526622,193.5321 c -0.891122,-1.01286 -1.585306,-2.86903 -2.185851,-5.84473 -0.343819,-1.70362 -0.993634,-4.18661 -1.444034,-5.51776 -0.450399,-1.33115 -0.818908,-2.94962 -0.818908,-3.5966 0,-2.25123 1.819798,-6.36967 3.165892,-7.16482 0.413717,-0.24439 1.290721,-0.44435 1.948898,-0.44435 1.033914,0 1.298273,0.12103 1.943552,0.88981 1.10187,1.31274 1.825153,1.62591 2.59308,1.12274 0.60326,-0.39527 0.870044,-0.99108 1.44508,-3.2273 0.153092,-0.59535 0.504985,-1.28757 0.781983,-1.53824 0.479609,-0.43405 0.576092,-0.41712 2.022736,0.35485 1.863524,0.99444 2.879024,1.02209 5.601721,0.15256 2.618024,-0.8361 4.18825,-0.83368 6.974911,0.0107 1.226193,0.37156 3.931907,1.08649 6.012699,1.58873 5.322721,1.28474 7.552934,2.48399 11.953238,6.42762 3.347167,2.99979 5.374881,4.07774 7.943713,4.22294 2.346155,0.13261 3.929692,-0.50503 8.058396,-3.24489 2.150187,-1.42688 3.777672,-2.31368 4.583182,-2.49732 2.41634,-0.55089 16.29721,-1.08784 18.05009,-0.69823 1.94077,0.43138 3.81173,1.63768 5.51838,3.55797 1.77598,1.9983 2.48937,2.48128 4.58351,3.10317 0.71655,0.21279 1.37484,0.57458 1.46286,0.80397 0.2362,0.61553 -0.64599,2.06984 -2.23502,3.68447 -1.13298,1.15122 -1.57102,1.426 -2.27329,1.426 -0.47844,0 -1.101,-0.1748 -1.38347,-0.38846 -0.65312,-0.49399 -2.17033,-0.49821 -3.02714,-0.008 -1.03497,0.59164 -2.60989,0.46584 -5.17588,-0.41346 -2.20062,-0.75409 -2.53375,-0.79834 -4.79989,-0.63768 l -2.43514,0.17264 -1.53883,-0.94981 c -1.87499,-1.15732 -2.99909,-1.21903 -4.87644,-0.2677 -1.54985,0.78537 -1.99414,0.73413 -3.898251,-0.44953 -1.529,-0.95048 -3.340954,-1.2533 -4.536376,-0.75814 -0.446186,0.18482 -1.184442,0.88469 -1.640568,1.55527 -0.456128,0.67058 -0.956244,1.30446 -1.111369,1.40862 -0.156845,0.10531 -0.869297,-0.38039 -1.604963,-1.09416 -1.563801,-1.51724 -2.192454,-1.87333 -3.307291,-1.87333 -1.641952,0 -2.702582,0.88916 -4.660184,3.9068 -2.226601,3.4323 -3.251652,3.50953 -4.464193,0.33634 -0.588849,-1.54099 -1.034836,-2.17137 -2.670201,-3.77417 -2.930674,-2.87231 -3.814829,-3.11529 -6.358282,-1.74742 -1.258933,0.67706 -1.812954,0.82407 -2.881517,0.76461 -3.037162,-0.16899 -3.188933,-0.14384 -4.518924,0.74885 -1.251263,0.83983 -1.379855,0.8688 -3.305506,0.74452 -2.591912,-0.16728 -4.438036,-1.06018 -5.599819,-2.70841 -0.879742,-1.2481 -1.654516,-1.68673 -2.133427,-1.20782 -0.494652,0.49465 -1.231714,0.32517 -2.292238,-0.52709 -2.110391,-1.69596 -2.661211,-0.83378 -3.818725,5.97733 -1.064201,6.26203 -1.588083,7.90165 -2.561284,8.01617 -0.392632,0.0462 -0.841185,-0.11758 -1.08691,-0.39687 z m 93.182458,-13.00815 c 0,-0.38768 2.36847,-1.87563 2.99597,-1.88216 0.66972,-0.007 0.47336,0.74408 -0.35634,1.3629 -0.80371,0.59943 -2.63963,0.96059 -2.63963,0.51926 z m 6.14544,-7.50959 c -0.14814,-0.1819 -0.45135,-0.77014 -0.67379,-1.30721 -0.22244,-0.53706 -1.4596,-2.02535 -2.74925,-3.30729 -3.57235,-3.55101 -3.98218,-4.91185 -3.01274,-10.00373 1.03561,-5.43947 0.55219,-9.63112 -1.78117,-15.44407 -1.07944,-2.68914 -1.24033,-3.34342 -1.27706,-5.19343 -0.0231,-1.16416 -0.0531,-2.36195 -0.0665,-2.66175 -0.0373,-0.83053 -1.49724,-2.15254 -2.88447,-2.61197 -0.68258,-0.22606 -2.90794,-0.6921 -4.94523,-1.03564 -3.46947,-0.58505 -3.90533,-0.60395 -6.87917,-0.29841 -2.26178,0.23238 -3.64563,0.52451 -4.81127,1.01564 -0.89995,0.37919 -2.56683,0.93928 -3.70417,1.24466 -1.13734,0.30538 -2.81395,0.78013 -3.7258,1.055 -1.15885,0.34933 -2.43317,0.49526 -4.233336,0.4848 -2.048058,-0.0119 -3.031938,0.12503 -4.80486,0.66874 -2.57273,0.78901 -3.22679,0.8261 -5.272996,0.29909 -0.821367,-0.21155 -3.219804,-0.63418 -5.329857,-0.93918 -2.110052,-0.30499 -5.086615,-0.77927 -6.614583,-1.05395 -1.527969,-0.27468 -3.645104,-0.62762 -4.704745,-0.78432 -1.05964,-0.15669 -3.036488,-0.64042 -4.392991,-1.07495 -2.924516,-0.9368 -4.587438,-1.00075 -6.164996,-0.23707 -1.398598,0.67705 -4.025619,3.5336 -5.075638,5.51912 -1.972439,3.72974 -3.387979,9.73653 -3.999367,16.97115 -0.31802,3.76317 -0.511246,4.60836 -1.372661,6.00416 -0.718104,1.16358 -2.306285,2.96718 -2.612791,2.96718 -1.278495,0 -4.661354,-12.04253 -5.734966,-20.41571 -0.284691,-2.22033 2.035081,-7.32487 4.742857,-10.43642 0.87298,-1.00315 2.074214,-2.53829 2.669409,-3.41142 0.595194,-0.87312 1.641528,-2.26235 2.325187,-3.08718 1.503702,-1.81419 2.462304,-3.78134 2.87932,-5.90865 0.45289,-2.3103 1.409299,-4.10458 2.653492,-4.9781 0.832508,-0.58448 1.060805,-0.91378 1.060805,-1.53015 0,-0.43196 0.281462,-1.34697 0.62547,-2.03336 0.395692,-0.7895 0.677357,-1.91974 0.766707,-3.07655 0.112848,-1.46105 0.370986,-2.2817 1.284341,-4.08302 0.62871,-1.23994 1.552868,-2.61974 2.053682,-3.06621 0.500817,-0.44648 1.814291,-1.65483 2.918834,-2.685228 2.267389,-2.115185 3.669167,-3.020913 7.368947,-4.761282 3.192087,-1.501551 5.223249,-1.957597 7.92818,-1.780072 l 2.056966,0.134999 1.269674,-0.998774 c 1.707971,-1.343555 3.237664,-1.478607 5.986564,-0.528537 1.535268,0.530617 2.478376,0.678992 4.315838,0.678992 1.748632,0 2.97029,0.178088 4.766474,0.694837 3.37775,0.971751 3.48601,0.914714 4.8417,-2.550964 1.2897,-3.296956 1.62935,-3.542029 3.91179,-2.822552 1.87615,0.591401 4.20711,2.124637 6.59228,4.336196 1.88685,1.749508 2.58777,2.160123 5.35735,3.138427 0.87429,0.308829 1.90613,1.018639 3.04271,2.093114 0.94588,0.894198 2.23307,2.021199 2.86042,2.504444 0.62734,0.483246 2.00556,1.9642 3.06271,3.291 1.05715,1.32681 3.05641,3.45274 4.44281,4.7243 2.64256,2.42367 4.99909,5.22951 6.58058,7.83526 1.03848,1.71107 2.0354,4.59008 3.00929,8.69056 0.35245,1.48399 1.14303,3.86524 1.75683,5.29166 1.58229,3.67711 1.68433,5.49023 0.51293,9.11413 -1.00013,3.09408 -1.09035,2.46968 1.33249,9.22209 2.06232,5.74764 2.16216,6.18056 2.01366,8.73125 -0.0974,1.67234 -0.36666,2.89341 -1.05035,4.7625 -2.59535,7.09522 -4.5057,10.48257 -6.88306,12.20472 -1.13332,0.82098 -1.80775,0.95062 -2.23246,0.42913 z"
           style="fill:#9e9e9e;stroke-width:0.26458335" />
        <path
           inkscape:connector-curvature="0"
           id="path917"
           d="m 78.86792,255.22431 c -2.184461,-0.43451 -6.202792,-1.90436 -9.055714,-3.31246 -5.047671,-2.49136 -9.81741,-7.12786 -11.763166,-11.43458 -1.829856,-4.05019 -3.80187,-10.37561 -3.782329,-12.13216 0.02072,-1.86225 0.388766,-2.34793 1.779245,-2.34793 1.707848,0 2.423481,-0.37201 3.382496,-1.75831 1.588368,-2.29607 3.607155,-4.52214 4.844053,-5.34143 0.675457,-0.4474 2.383671,-1.17246 3.79603,-1.61125 4.122886,-1.28088 5.580129,-2.66637 5.580129,-5.30534 0,-1.20209 0.07192,-1.36995 0.687245,-1.60389 1.003342,-0.38147 2.578558,0.12365 4.630539,1.48487 2.357594,1.56395 5.976377,3.19602 8.705134,3.92601 4.964811,1.32817 8.878234,2.60343 10.545868,3.43657 0.966492,0.48285 2.4121,1.08782 3.21247,1.34437 0.80036,0.25655 1.82626,0.68981 2.27977,0.9628 1.05043,0.63229 2.11624,2.2391 2.50236,3.77251 0.25897,1.02845 0.23237,1.33462 -0.18998,2.18685 -0.73598,1.48506 -1.3124,1.57317 -6.647681,1.0161 -3.98978,-0.41659 -4.933403,-0.43569 -7.156514,-0.14483 -2.654422,0.34728 -3.843073,0.76851 -4.106614,1.45528 -0.08449,0.22017 0.01887,0.96872 0.229658,1.66344 0.55272,1.82158 0.492506,2.31177 -0.507375,4.13055 -1.149583,2.09108 -1.299703,3.06129 -0.822487,5.31567 0.452282,2.13658 1.366917,3.65986 2.57157,4.28281 1.064586,0.55052 7.93613,2.66597 9.441887,2.90675 2.398526,0.38354 2.768006,1.74438 0.73954,2.72379 -1.016228,0.49067 -2.432238,0.91255 -10.372681,3.09042 -1.455208,0.39913 -3.419739,0.93795 -4.365625,1.19739 -2.031421,0.55717 -3.707895,0.5833 -6.157828,0.096 z m -6.542173,-10.98675 c 1.236928,-0.29773 3.002193,-0.61262 3.922811,-0.69975 2.149544,-0.20345 2.564657,-0.71958 2.357247,-2.93087 -0.300082,-3.19934 -2.083088,-6.29939 -4.570891,-7.94724 -1.744883,-1.15576 -5.168361,-2.42926 -6.529277,-2.42883 -1.181611,2.7e-4 -5.019824,0.6163 -5.839156,0.93702 -0.765731,0.29974 -1.318374,1.64184 -1.117336,2.71346 0.279731,1.4911 2.199939,6.10061 3.065333,7.35841 1.239819,1.80202 4.043093,3.46668 5.933144,3.52328 0.291042,0.009 1.541198,-0.22775 2.778125,-0.52548 z M 40.95912,187.5088 c -0.443435,-1.06129 -0.496214,-3.03126 -0.117718,-4.39377 0.325995,-1.17352 1.389082,-2.22937 2.006217,-1.99255 1.009106,0.38723 -0.138791,7.30386 -1.212163,7.30386 -0.161129,0 -0.46548,-0.41289 -0.676336,-0.91754 z m 38.462668,0.45452 c -0.216868,-0.25466 -0.5593,-0.87974 -0.76096,-1.38906 -0.458367,-1.15768 -4.249902,-4.86425 -5.691011,-5.56347 -1.581906,-0.76755 -2.960801,-0.67984 -4.410707,0.28053 -1.317252,0.87252 -1.887998,0.95902 -4.323017,0.65525 -1.359289,-0.16957 -1.808472,-0.11145 -2.910417,0.37658 -1.53393,0.67935 -3.334755,0.75537 -4.670723,0.19717 -1.394531,-0.58267 -1.956996,-1.64366 -2.034533,-3.83777 -0.02945,-0.83328 -1.40276,-2.16246 -2.234271,-2.16246 -0.396482,0 -1.16026,0.42802 -1.888528,1.05834 -0.672544,0.58208 -1.379026,1.05833 -1.569958,1.05833 -0.190933,0 -0.904856,-0.2467 -1.586498,-0.54822 -0.805752,-0.35643 -1.661893,-0.52224 -2.447111,-0.47395 -1.016709,0.0625 -1.288619,-0.0286 -1.718898,-0.57626 -1.370565,-1.74433 -1.23255,-1.66461 -2.01913,-1.16637 -0.391914,0.24824 -1.137573,0.93333 -1.657019,1.52241 -0.700533,0.79445 -1.068632,1.02341 -1.425302,0.88654 -0.412246,-0.15819 -0.460997,-0.40352 -0.341675,-1.71943 0.338288,-3.73069 2.667367,-5.34142 4.080587,-2.82202 1.397378,2.49116 4.147073,1.45153 5.424082,-2.05079 0.696589,-1.91046 1.123719,-2.17381 2.64191,-1.62886 1.732279,0.62179 3.286317,0.50917 5.565058,-0.40328 2.589022,-1.03669 4.499717,-1.06907 7.73514,-0.13109 1.286757,0.37304 3.640249,0.96595 5.229982,1.31757 1.589734,0.35162 3.415613,0.87162 4.05751,1.15556 1.559629,0.6899 5.92309,3.73096 8.088821,5.63741 0.960896,0.84586 2.982847,2.20034 4.493226,3.00997 2.505626,1.34312 2.847491,1.45685 3.903269,1.29852 2.512248,-0.37673 4.688313,-1.34593 7.947065,-3.53954 1.800685,-1.21212 3.69074,-2.37799 4.20012,-2.59082 1.27403,-0.53233 8.18653,-0.95723 12.23737,-0.75222 6.80481,0.34439 8.54242,0.9136 10.8222,3.54519 1.05774,1.22096 1.82808,1.80345 3.3243,2.51364 1.2443,0.59062 2.01087,1.12404 2.12299,1.47728 0.22004,0.69329 -0.88724,2.65984 -1.8545,3.29362 -1.10913,0.72673 -1.72328,0.44089 -3.00479,-1.39851 -1.35985,-1.95185 -2.22203,-2.41863 -4.45639,-2.41272 -2.14112,0.006 -2.4588,0.25188 -1.83046,1.41863 0.67179,1.24744 0.39203,1.5902 -1.12294,1.37584 -3.25129,-0.46005 -3.65956,-0.46414 -4.88251,-0.0489 -1.94927,0.66179 -2.84327,0.552 -4.4381,-0.54505 -1.63192,-1.12256 -3.16505,-1.38493 -5.21671,-0.89275 -1.25427,0.3009 -1.41622,0.27376 -3.26279,-0.54673 -1.444493,-0.64183 -2.341851,-0.8677 -3.497504,-0.88034 l -1.554493,-0.017 -1.383144,1.52136 c -0.76073,0.83674 -1.569662,1.52135 -1.797624,1.52135 -0.227962,0 -1.081871,-0.60996 -1.897573,-1.35547 l -1.483096,-1.35546 -1.172985,0.32842 c -1.413476,0.39575 -2.924376,1.63964 -4.264102,3.51056 -1.05356,1.47129 -1.90491,2.296 -2.380131,2.30565 -0.159348,0.003 -0.467161,-0.20248 -0.68403,-0.45714 z M 68.569201,178.0809 c 0.190114,-1.63711 -4.094377,-2.60361 -6.15283,-1.38798 -0.438761,0.25912 -0.463741,0.3689 -0.165653,0.72808 0.53549,0.64522 3.420742,1.4701 4.915654,1.40535 1.210453,-0.0524 1.329711,-0.1158 1.402829,-0.74545 z m 71.914979,-10.18154 c -1.24313,-0.90786 -2.42646,-2.05483 -3.07091,-2.97657 -0.57664,-0.82476 -1.43763,-2.01722 -1.9133,-2.6499 -0.94307,-1.25436 -0.88645,-0.75483 -0.76919,-6.78717 0.0837,-4.30654 -0.56665,-7.6677 -2.40621,-12.43542 -1.32342,-3.43002 -1.38005,-3.96588 -0.597,-5.64867 0.78623,-1.68961 0.81625,-2.29164 0.16736,-3.3557 -0.88899,-1.45778 -5.39559,-3.41552 -10.0921,-4.38417 -2.22262,-0.45841 -2.86198,-0.48605 -5.52408,-0.23878 -2.77169,0.25745 -3.23672,0.38474 -5.86135,1.6044 -4.06978,1.89123 -7.20053,2.63021 -11.143048,2.63021 -2.674524,0 -3.429793,0.0991 -5.03928,0.66146 -2.585146,0.9032 -1.645696,0.95613 -14.500991,-0.8171 -8.237805,-1.13631 -8.556123,-1.20602 -11.443592,-2.50604 -2.640992,-1.18905 -4.177403,-1.33081 -5.886617,-0.54315 -1.446554,0.66661 -3.285111,2.35088 -4.882941,4.47316 -2.531918,3.36296 -4.751185,10.37574 -5.459735,17.25251 -0.474629,4.60647 -0.921671,6.52024 -1.851168,7.92481 -1.337157,2.02058 -2.283691,1.64828 -3.3887,-1.33287 -1.735963,-4.68338 -3.081302,-10.32285 -3.791909,-15.89515 -0.283341,-2.22185 2.036415,-7.32563 4.743531,-10.43642 0.87298,-1.00315 2.074214,-2.53829 2.669409,-3.41142 0.595194,-0.87312 1.656684,-2.28056 2.358867,-3.12765 1.697573,-2.04788 2.228547,-3.15337 2.885931,-6.00853 0.845206,-3.67091 1.690879,-4.39824 4.278405,-3.67969 2.045409,0.56801 2.835185,-0.45037 2.835185,-3.65585 0,-1.73463 -0.115758,-2.3203 -0.661458,-3.34662 -0.880282,-1.65558 -0.834719,-2.58922 0.235323,-4.82202 0.713552,-1.48893 1.484683,-2.46049 3.774125,-4.755038 2.642542,-2.648443 3.125322,-3.007873 5.916237,-4.404639 1.671394,-0.83648 3.591454,-1.824584 4.266798,-2.195786 1.404321,-0.771882 4.205539,-1.112708 5.915851,-0.719785 1.358432,0.312083 2.658809,-0.03028 3.189118,-0.839636 0.978305,-1.493083 3.24394,-1.843614 5.831441,-0.902221 1.099606,0.400063 2.503768,0.619853 4.737775,0.741592 2.633806,0.143526 3.490473,0.302174 5.025773,0.930732 3.07977,1.260865 3.61047,1.072425 4.29307,-1.524381 0.57952,-2.204621 1.43986,-3.920993 2.08917,-4.16786 0.76862,-0.292226 2.67094,0.262001 4.46699,1.301419 0.7276,0.421083 2.54915,1.837167 4.04788,3.146854 2.27348,1.986706 3.05541,2.501765 4.71931,3.108625 1.46185,0.533165 2.39442,1.09319 3.49274,2.097449 0.82412,0.75354 2.07139,1.775251 2.77171,2.270469 0.70032,0.495219 2.21082,2.046986 3.35666,3.448376 1.14585,1.4014 3.22075,3.59204 4.61089,4.86809 5.01545,4.60386 7.79639,9.34272 8.62386,14.69548 0.39426,2.55039 0.87575,4.2331 2.19446,7.66916 0.92668,2.41455 1.06759,3.06137 1.06719,4.89855 -2.7e-4,1.56645 -0.14992,2.48029 -0.5754,3.51552 -0.81313,1.97843 -0.73839,3.39226 0.31497,5.95831 0.48945,1.19231 1.09906,2.82268 1.35469,3.62304 0.25564,0.80037 0.8345,2.28865 1.28635,3.30729 0.74022,1.66872 0.8217,2.11404 0.82307,4.49792 0.002,2.80575 -0.16151,3.47803 -1.87984,7.74815 -1.48405,3.68796 -3.70893,6.67164 -4.97491,6.67164 -0.33437,0 -1.51805,-0.66464 -2.63041,-1.47698 z"
           style="fill:#888888;stroke-width:0.26458335" />
        <path
           inkscape:connector-curvature="0"
           id="path915"
           d="m 77.749706,254.59469 c -2.330331,-0.58846 -6.653353,-2.20915 -8.73125,-3.2733 -1.111393,-0.56918 -2.409606,-1.65178 -4.328674,-3.60976 -3.50637,-3.57745 -4.770988,-5.3624 -6.215039,-8.77221 -0.641887,-1.51568 -1.85101,-4.18244 -2.686939,-5.92613 -1.236975,-2.58025 -1.51987,-3.4215 -1.51987,-4.51966 0,-1.98852 0.361758,-2.49645 1.778022,-2.49645 1.828936,0 2.491894,-0.39641 5.034999,-3.01061 3.179062,-3.26794 4.197962,-3.95776 7.243141,-4.90383 4.014889,-1.24733 5.68174,-2.62108 6.248276,-5.14957 0.283073,-1.26337 0.362683,-1.36155 1.16794,-1.44039 0.676272,-0.0662 1.311251,0.20892 2.920444,1.26539 1.130954,0.74249 2.995976,1.74608 4.14449,2.23021 2.002967,0.84429 7.360187,2.54227 10.926326,3.46312 0.931902,0.24063 2.71784,0.94851 3.96875,1.57307 1.250913,0.62455 2.929228,1.34588 3.729598,1.60296 1.99131,0.63961 3.04208,1.49037 3.57981,2.89841 0.48412,1.26765 0.3877,2.22842 -0.29182,2.90794 -0.50735,0.50735 -1.88426,0.52857 -6.695156,0.10317 -2.78911,-0.24662 -4.105471,-0.24234 -6.209409,0.0202 -4.563652,0.56954 -5.264192,1.21222 -4.17799,3.83288 0.752054,1.81447 0.722064,2.14796 -0.349274,3.88366 -0.503066,0.81503 -1.030917,1.99927 -1.173001,2.63164 -0.323072,1.43789 0.04771,3.61355 0.903721,5.30281 1.016932,2.00681 2.07713,2.7221 5.863141,3.95568 3.485285,1.13559 5.481452,2.04816 5.497907,2.51343 0.0176,0.49768 -3.272719,1.88197 -6.263077,2.63499 -1.643391,0.41383 -4.209495,1.21064 -5.702454,1.77069 -2.329259,0.87377 -3.005111,1.01551 -4.7625,0.9988 -1.126416,-0.0107 -2.881466,-0.22995 -3.900112,-0.48718 z m -5.125771,-9.77676 c 1.363967,-0.41713 3.07525,-0.8456 3.802854,-0.95216 0.727604,-0.10656 1.514946,-0.2965 1.74965,-0.42209 1.14739,-0.61401 1.295472,-3.35707 0.334793,-6.20171 -0.703619,-2.08348 -3.500892,-4.67596 -6.925778,-6.41874 -3.158072,-1.60701 -4.184624,-1.72666 -7.10319,-0.82793 -2.472426,0.76134 -3.191246,1.16943 -3.661413,2.07863 -0.606025,1.17193 -0.487002,2.79298 0.400714,5.45759 1.433029,4.30145 3.354788,6.61744 6.309607,7.60395 1.722562,0.57511 2.289474,0.53976 5.092763,-0.31754 z m 4.461754,-61.38246 c -1.914342,-1.93751 -3.298134,-3.0887 -4.441531,-3.69495 -1.111261,-0.58921 -1.870711,-1.21306 -2.295057,-1.88527 -0.850278,-1.34692 -1.796937,-2.05045 -3.399431,-2.52634 -1.675699,-0.49763 -3.180453,-0.50322 -4.79335,-0.0178 -2.282505,0.68693 -2.988612,2.0572 -1.538386,2.98539 1.702634,1.08974 1.788399,1.59624 0.443934,2.62172 -1.632,1.24478 -4.72906,1.16539 -5.298603,-0.13584 -0.102509,-0.23421 -0.214262,-1.05157 -0.24834,-1.81637 -0.07029,-1.57748 -0.923284,-2.95606 -2.255245,-3.64485 -0.916329,-0.47385 -1.395767,-0.29498 -2.961259,1.10483 -0.556204,0.49734 -1.279021,0.88786 -1.643339,0.88786 -1.773109,0 -2.35979,-2.61107 -1.099811,-4.8948 l 0.583905,-1.05833 2.284992,0.0757 c 2.097793,0.0695 2.487029,-0.004 4.751098,-0.89158 2.390669,-0.93768 2.542993,-0.96259 4.979647,-0.81437 2.65973,0.16177 10.996643,2.21157 12.038543,2.95992 0.291041,0.20903 1.66026,1.14215 3.042708,2.07359 1.382448,0.93144 3.202102,2.28545 4.043675,3.00892 0.841574,0.72347 2.210792,1.65096 3.042709,2.06109 1.779468,0.87726 2.7032,1.63977 2.7032,2.23139 0,0.76226 -4.02589,4.28383 -4.817933,4.21438 -0.187793,-0.0165 -1.592749,-1.29639 -3.122126,-2.84427 z m 49.188991,0.95419 c -0.58865,-0.73775 -1.56421,-2.38288 -1.56012,-2.63091 7.9e-4,-0.0436 0.52751,-0.10952 1.17066,-0.14647 1.46922,-0.0844 2.38418,0.25678 2.93245,1.09355 0.38667,0.59012 0.38895,0.72851 0.0236,1.43496 -0.70811,1.36934 -1.60333,1.45614 -2.56661,0.24887 z m -17.84765,-1.31809 c -1.16731,-0.76436 -1.50851,-0.85566 -3.16066,-0.8458 -1.01864,0.006 -2.29826,0.10954 -2.84358,0.22991 -0.8484,0.18726 -1.3162,0.0742 -3.24115,-0.78356 -1.649273,-0.73489 -2.249641,-1.13281 -2.249641,-1.49106 0,-0.63443 3.223921,-3.03233 4.630211,-3.44389 0.58208,-0.17035 1.20178,-0.41805 1.3771,-0.55046 0.5991,-0.45242 6.14046,-0.80263 7.71061,-0.4873 0.79837,0.16033 2.48142,0.29152 3.74011,0.29152 4.02277,0 6.58071,0.73273 8.08133,2.31494 0.66352,0.6996 1.83978,2.6963 1.66503,2.82641 -0.25227,0.18783 -6.36835,-0.65183 -7.49293,-1.02869 -1.48797,-0.49862 -3.10504,-0.39892 -4.40124,0.27138 -0.79087,0.40897 -0.81413,0.47026 -0.64954,1.71098 0.14709,1.10882 0.0989,1.32525 -0.34843,1.56465 -0.84079,0.44997 -1.431,0.32867 -2.81722,-0.57903 z m 35.07164,-15.2975 c -0.3638,-0.12268 -1.24088,-0.3675 -1.94905,-0.54403 -1.61796,-0.40333 -2.659,-1.27065 -3.48743,-2.90548 -0.35637,-0.70328 -1.01797,-1.70011 -1.47022,-2.21519 -1.05812,-1.20513 -1.26913,-2.2108 -0.97517,-4.64756 0.20314,-1.68383 0.13625,-2.52394 -0.45223,-5.68026 -0.37984,-2.03729 -1.23592,-5.40199 -1.9024,-7.47711 -1.37602,-4.2843 -1.40607,-5.48789 -0.18114,-7.25546 1.34564,-1.94176 0.155,-3.85074 -3.74938,-6.01143 -1.15767,-0.64065 -2.52158,-1.43767 -3.0309,-1.77115 -2.15865,-1.41336 -5.39891,-2.05225 -9.21983,-1.81789 -3.83401,0.23517 -4.51114,0.44567 -7.7135,2.39787 -3.73315,2.27577 -6.88891,3.14058 -10.451046,2.86403 -3.458329,-0.2685 -3.920845,-0.21265 -5.582632,0.67413 -1.586725,0.84673 -2.342719,0.95847 -3.751361,0.55447 -0.475109,-0.13625 -2.617449,-0.44275 -4.760754,-0.6811 -11.375406,-1.26503 -12.606682,-1.50955 -17.186977,-3.41315 -2.33117,-0.96885 -4.327102,-0.94456 -5.906582,0.0719 -1.883453,1.21207 -4.25163,3.81723 -5.607253,6.16836 -1.517744,2.6323 -4.264078,10.79665 -4.671553,13.88766 -0.150335,1.14041 -0.411081,3.14503 -0.579435,4.45471 -0.492669,3.83264 -1.583543,6.13529 -2.799916,5.91017 -1.373127,-0.25413 -4.011765,-9.39546 -5.040492,-17.46233 -0.283341,-2.22185 2.036415,-7.32563 4.743531,-10.43642 0.87298,-1.00315 2.074214,-2.53829 2.669409,-3.41142 0.595194,-0.87312 1.656684,-2.28056 2.358867,-3.12765 1.697573,-2.04788 2.228547,-3.15337 2.885931,-6.00853 0.372309,-1.61702 0.773838,-2.65921 1.236251,-3.20876 0.632924,-0.75218 0.776377,-0.80139 1.892031,-0.64899 0.663951,0.0907 1.513718,0.23359 1.888374,0.31753 0.839295,0.18806 2.128745,-0.80725 2.637721,-2.03603 0.421127,-1.01669 0.09404,-2.47711 -1.084657,-4.84285 -0.998545,-2.00417 -0.98026,-2.79395 0.117735,-5.08508 0.713552,-1.48893 1.484683,-2.46049 3.774125,-4.755038 2.642542,-2.648443 3.125322,-3.007873 5.916237,-4.404639 1.671394,-0.83648 3.591454,-1.824584 4.266798,-2.195786 1.404321,-0.771882 4.205539,-1.112708 5.915851,-0.719785 1.358432,0.312083 2.658809,-0.03028 3.189118,-0.839636 0.978305,-1.493083 3.24394,-1.843614 5.831441,-0.902221 1.099606,0.400063 2.503768,0.619853 4.737775,0.741592 2.633806,0.143526 3.490473,0.302174 5.025773,0.930732 3.07977,1.260865 3.61047,1.072425 4.29307,-1.524381 0.57952,-2.204621 1.43986,-3.920993 2.08917,-4.16786 0.76862,-0.292226 2.67094,0.262001 4.46699,1.301419 0.7276,0.421083 2.54915,1.837167 4.04788,3.146854 2.27348,1.986706 3.05541,2.501765 4.71931,3.108625 1.46185,0.533165 2.39442,1.09319 3.49274,2.097449 0.82412,0.75354 2.07139,1.775251 2.77171,2.270469 0.70032,0.495219 2.21544,2.052636 3.36693,3.460936 1.15149,1.4083 3.18726,3.55566 4.52393,4.77192 3.43915,3.12933 6.59307,7.51614 7.78129,10.82302 0.23279,0.64787 0.64374,2.4281 0.91321,3.95607 0.49544,2.8092 0.87303,4.12706 2.35009,8.20208 1.00706,2.77834 1.08329,4.84771 0.25966,7.04906 -0.8302,2.2189 -0.72637,4.05322 0.38226,6.75352 0.49784,1.2126 1.11432,2.85956 1.36995,3.65992 0.25564,0.80037 0.83574,2.28865 1.28912,3.30729 0.75899,1.70532 0.82286,2.07223 0.80593,4.63021 -0.0167,2.52487 -0.10708,3.0169 -0.99128,5.39737 -1.30217,3.50572 -2.49561,5.88002 -3.42051,6.80492 -0.80149,0.80149 -0.97698,0.84294 -2.04451,0.48294 z m -3.26939,-31.07714 c 0.39862,-1.03879 -1.59209,-1.74376 -3.39704,-1.20298 l -1.05913,0.31732 0.87147,0.64295 c 1.04197,0.76874 3.32356,0.92322 3.5847,0.24271 z"
           style="fill:#757575;stroke-width:0.26458335" />
        <path
           inkscape:connector-curvature="0"
           id="path913"
           d="m 79.384289,254.02976 c -2.849298,-0.61402 -7.765368,-2.37651 -9.799196,-3.51316 -0.825892,-0.46157 -2.243752,-1.40618 -3.150797,-2.09915 -0.907047,-0.69296 -2.184955,-1.64957 -2.839799,-2.1258 -1.723308,-1.25324 -3.773168,-4.12876 -4.92087,-6.90292 -0.548681,-1.32624 -1.764422,-4.01172 -2.701647,-5.96775 -1.413471,-2.94996 -1.704046,-3.78833 -1.704046,-4.91653 0,-1.99954 0.360056,-2.50727 1.778022,-2.50727 1.828936,0 2.491894,-0.39641 5.034999,-3.01061 3.179062,-3.26794 4.197962,-3.95776 7.243141,-4.90383 4.014889,-1.24733 5.68174,-2.62108 6.248276,-5.14957 0.283073,-1.26337 0.362683,-1.36155 1.16794,-1.44039 0.676272,-0.0662 1.311251,0.20892 2.920444,1.26539 1.130954,0.74249 2.995976,1.74608 4.14449,2.23021 2.002967,0.84429 7.360187,2.54227 10.926326,3.46312 0.931902,0.24063 2.71784,0.94851 3.96875,1.57307 1.250913,0.62455 2.929228,1.34588 3.729598,1.60296 1.99131,0.63961 3.04208,1.49037 3.57981,2.89841 0.48412,1.26765 0.3877,2.22842 -0.29182,2.90794 -0.50735,0.50735 -1.88426,0.52857 -6.695156,0.10317 -2.78911,-0.24662 -4.105471,-0.24234 -6.209409,0.0202 -4.563652,0.56954 -5.264192,1.21222 -4.17799,3.83288 0.752054,1.81447 0.722064,2.14796 -0.349274,3.88366 -0.503066,0.81503 -1.030917,1.99927 -1.173001,2.63164 -0.323072,1.43789 0.04771,3.61355 0.903721,5.30281 1.016932,2.00681 2.07713,2.7221 5.863141,3.95568 3.485285,1.13559 5.481452,2.04816 5.497907,2.51343 0.02887,0.81636 -5.473494,2.64183 -12.777955,4.23922 -3.495829,0.7645 -3.216651,0.75942 -6.215605,0.11315 z m -6.760354,-9.21183 c 1.363967,-0.41713 3.07525,-0.8456 3.802854,-0.95216 0.727604,-0.10656 1.514946,-0.2965 1.74965,-0.42209 1.14739,-0.61401 1.295472,-3.35707 0.334793,-6.20171 -0.703619,-2.08348 -3.500892,-4.67596 -6.925778,-6.41874 -3.158072,-1.60701 -4.184624,-1.72666 -7.10319,-0.82793 -2.472426,0.76134 -3.191246,1.16943 -3.661413,2.07863 -0.606025,1.17193 -0.487002,2.79298 0.400714,5.45759 1.433029,4.30145 3.354788,6.61744 6.309607,7.60395 1.722562,0.57511 2.289474,0.53976 5.092763,-0.31754 z m 4.461754,-61.38246 c -1.914342,-1.93751 -3.298134,-3.0887 -4.441531,-3.69495 -1.111261,-0.58921 -1.870711,-1.21306 -2.295057,-1.88527 -0.850278,-1.34692 -1.796937,-2.05045 -3.399431,-2.52634 -1.675699,-0.49763 -3.180453,-0.50322 -4.79335,-0.0178 -2.282505,0.68693 -2.988612,2.0572 -1.538386,2.98539 1.702634,1.08974 1.788399,1.59624 0.443934,2.62172 -1.632,1.24478 -4.72906,1.16539 -5.298603,-0.13584 -0.102509,-0.23421 -0.214262,-1.05157 -0.24834,-1.81637 -0.07652,-1.71734 -0.976457,-3.0187 -2.649718,-3.83163 l -1.15317,-0.56026 -1.352393,0.8407 c -1.652062,1.02698 -2.565936,1.09621 -2.788057,0.21121 -0.186281,-0.74221 0.831672,-2.90663 1.784961,-3.79528 0.565325,-0.527 0.778035,-0.56508 2.040936,-0.36545 1.57891,0.2496 2.279002,0.12432 4.860865,-0.8698 2.23433,-0.86031 3.2381,-0.86365 6.14783,-0.0204 1.270752,0.36825 4.052274,1.09541 6.181159,1.61591 4.248846,1.03883 4.601726,1.18431 7.329956,3.02185 1.708788,1.15092 7.552778,6.31205 7.726813,6.82396 0.04046,0.11901 -0.406024,0.81872 -0.992187,1.55491 -0.586166,0.7362 -1.065755,1.45186 -1.065755,1.59038 0,0.38193 -0.917716,1.13159 -1.34375,1.09767 -0.206823,-0.0165 -1.627349,-1.29639 -3.156726,-2.84427 z m 48.751361,0.42681 c -0.2913,-0.36505 -1.1238,-1.95397 -1.1238,-2.1449 0,-0.29817 1.00815,0.1949 1.85208,0.90581 0.89636,0.75507 0.90958,0.79274 0.41245,1.17495 -0.62526,0.48073 -0.80045,0.49058 -1.14073,0.0641 z m -17.41002,-0.79071 c -1.16731,-0.76436 -1.50851,-0.85566 -3.16066,-0.8458 -1.01864,0.006 -2.29826,0.10954 -2.84358,0.22991 -0.8484,0.18726 -1.3162,0.0742 -3.24115,-0.78356 -1.647336,-0.73402 -2.249641,-1.13302 -2.249641,-1.49026 0,-0.52901 2.723734,-2.69036 4.158691,-3.30003 0.4917,-0.20891 1.77717,-0.36102 3.04271,-0.36003 1.20522,10e-4 4.24742,-0.14204 6.76044,-0.31772 7.98908,-0.5585 10.97109,0.338 12.79746,3.84738 0.29133,0.55981 0.49163,1.04618 0.44509,1.08082 -0.25227,0.18783 -6.36835,-0.65183 -7.49293,-1.02869 -1.48797,-0.49862 -3.10504,-0.39892 -4.40124,0.27138 -0.79087,0.40897 -0.81413,0.47026 -0.64954,1.71098 0.14709,1.10882 0.0989,1.32525 -0.34843,1.56465 -0.84079,0.44997 -1.431,0.32867 -2.81722,-0.57903 z m 32.56985,-15.96781 c -1.35333,-0.49553 -2.16157,-1.2662 -2.94787,-2.81088 -0.34913,-0.68585 -1.00479,-1.66843 -1.45704,-2.18351 -1.12098,-1.27672 -1.28302,-2.26052 -0.87797,-5.33033 0.26267,-1.99066 0.27808,-3.20623 0.0644,-5.08368 -0.15441,-1.3571 -0.2206,-3.0835 -0.14707,-3.83646 0.12049,-1.23397 0.0334,-1.53866 -0.88305,-3.08881 -1.22716,-2.07573 -2.45379,-5.18109 -2.39901,-6.07338 0.0219,-0.35718 0.35073,-1.09798 0.73066,-1.64622 0.54705,-0.7894 0.65578,-1.18339 0.52254,-1.89358 -0.27039,-1.4413 -2.16023,-3.19743 -4.9706,-4.61892 -2.09721,-1.06077 -2.45142,-1.33299 -2.38245,-1.83094 0.0446,-0.32171 -0.0346,-0.80103 -0.176,-1.06517 -0.36319,-0.67863 0.10696,-1.39262 0.91701,-1.39262 1.4632,0 3.09151,-0.62388 4.00035,-1.53272 0.82044,-0.82044 0.9098,-1.04271 0.78708,-1.95768 -0.34024,-2.53664 -4.41625,-8.70596 -6.25522,-9.46769 -1.85781,-0.76953 -2.87006,0.46486 -2.55185,3.11186 0.1,0.83152 0.27368,2.64295 0.38603,4.0254 0.12843,1.58025 0.40713,2.9677 0.75058,3.73668 0.55952,1.25275 0.51111,1.72267 -0.18795,1.82447 -0.92104,0.13412 -1.61185,-0.32131 -2.41822,-1.5943 -0.52783,-0.83327 -4.24639,-3.70227 -4.79857,-3.70227 -0.25274,0 -0.81744,0.83984 -1.46768,2.18281 -1.16457,2.4052 -2.6996,4.15936 -4.37646,5.00119 -1.707,0.85696 -2.81407,1.78907 -2.81407,2.36934 0,0.67902 -1.50305,1.36051 -4.64803,2.10744 -1.87941,0.44636 -2.75166,0.51905 -4.437533,0.36982 -3.33103,-0.29486 -3.974274,-0.22005 -5.609288,0.65244 -1.607725,0.85793 -2.355234,0.96793 -3.787106,0.55727 -0.486019,-0.13938 -3.164139,-0.49968 -5.951379,-0.80066 -2.78724,-0.30098 -5.603489,-0.71101 -6.258333,-0.91119 -1.116282,-0.34122 -3.686001,-0.80861 -5.840148,-1.06221 -0.519944,-0.0612 -1.994543,-0.54561 -3.276883,-1.07643 -2.048381,-0.84793 -2.528015,-0.94975 -3.949439,-0.8384 -3.206763,0.2512 -3.556476,0.4257 -6.004029,2.99584 -2.07968,2.18384 -3.309998,4.14866 -4.382896,6.9995 -1.094105,2.90718 -2.253546,7.09982 -2.053093,7.42416 0.07749,0.12539 -0.116165,1.50674 -0.430352,3.06967 -0.314187,1.56294 -0.60468,3.67514 -0.64554,4.69378 -0.04086,1.01865 -0.227105,2.3581 -0.413878,2.97657 -0.297618,0.9855 -0.434179,1.12448 -1.104958,1.12448 -0.621637,0 -0.836576,-0.17042 -1.144537,-0.90748 -1.023894,-2.45052 -2.538146,-8.31733 -3.035033,-11.7589 l -0.549044,-3.80284 0.54398,-1.63467 c 0.846899,-2.54493 2.764567,-5.66353 4.730518,-7.69299 0.986768,-1.01865 2.134965,-2.31874 2.551549,-2.88909 0.416583,-0.57036 1.290697,-1.63745 1.942476,-2.37132 1.378341,-1.55194 2.426855,-3.747 3.074484,-6.43643 0.532295,-2.21047 0.859788,-2.58454 2.058878,-2.35168 2.815833,0.54684 3.186163,0.51289 4.434194,-0.40649 0.654844,-0.4824 1.73549,-1.13301 2.401435,-1.44581 1.568829,-0.73687 1.958203,-1.61937 1.715292,-3.88763 -0.178454,-1.6664 -0.345379,-2.10537 -1.333294,-3.5063 -0.288123,-0.40858 -0.619953,-1.46612 -0.737399,-2.3501 -0.117446,-0.88398 -0.278053,-2.08348 -0.356902,-2.66557 -0.136901,-1.01063 -0.05765,-1.15603 1.758228,-3.22585 1.781815,-2.030997 2.095603,-2.261319 4.981803,-3.656661 1.694116,-0.819026 3.615994,-1.827206 4.270838,-2.2404 1.805411,-1.13918 2.899386,-1.348402 5.255149,-1.005047 1.114412,0.162428 2.324111,0.220552 2.688222,0.129166 0.36411,-0.09139 1.295371,-0.706776 2.069471,-1.367535 1.650402,-1.408759 2.490031,-1.519444 4.960842,-0.653972 0.945886,0.331323 2.71163,0.629817 4.473192,0.756181 2.280269,0.163572 3.282776,0.368582 4.630213,0.946866 0.94588,0.40595 2.3457,0.791111 3.11071,0.855914 1.30016,0.110134 1.44988,0.05887 2.29424,-0.785488 0.59249,-0.592494 0.96183,-1.260994 1.07339,-1.942825 0.78493,-4.797517 2.35089,-4.81689 7.82683,-0.09682 1.2272,1.057812 2.88613,2.20556 3.68649,2.55055 2.79085,1.202967 3.29169,1.543315 4.38627,2.980696 0.66059,0.867464 1.72359,1.822983 2.65455,2.386135 1.00929,0.61054 2.01365,1.53949 2.86964,2.65419 0.72429,0.9432 2.20797,2.54835 3.29705,3.567 4.66874,4.36679 6.49951,6.53155 7.98288,9.4392 0.80688,1.58161 1.28942,4.25384 1.2946,7.16921 0.005,2.99018 0.48559,4.32205 2.87244,7.96564 1.21849,1.86007 1.36549,2.23833 1.36549,3.5137 0,0.92905 -0.23149,1.97923 -0.66146,3.00079 -0.88626,2.10567 -0.83959,2.954 0.36169,6.57405 0.56272,1.69578 1.11021,3.49996 1.21662,4.00928 0.10642,0.50933 0.6238,1.87854 1.14975,3.04271 0.85309,1.88831 0.95724,2.3593 0.9654,4.36563 0.006,1.5153 -0.15135,2.72367 -0.48284,3.70416 -0.86848,2.56884 -2.86554,6.34067 -3.78427,7.14732 -0.48486,0.42571 -0.88156,0.89672 -0.88156,1.04668 0,0.37568 -0.98526,0.31058 -2.2372,-0.14783 z m -0.29524,-29.36403 c 0.80757,-0.80756 0.29414,-2.52622 -0.90278,-3.022 -0.39641,-0.1642 -1.30276,-0.26154 -2.01411,-0.21632 -1.12081,0.0713 -1.34093,0.18189 -1.64997,0.82934 -0.50641,1.06096 -0.19076,1.99267 0.82467,2.43418 1.17344,0.5102 3.22058,0.49642 3.74219,-0.0252 z m -33.50976,-11.1086 c 1.61696,-1.13257 -0.0675,-4.00289 -2.63136,-4.48388 -0.81305,-0.15253 -1.07268,-0.0687 -1.77272,0.57259 -1.45473,1.3326 -1.33269,3.52702 0.22962,4.12858 0.86605,0.33347 3.59062,0.19165 4.17446,-0.21729 z"
           style="fill:#737373;stroke-width:0.26458335" />
        <path
           inkscape:connector-curvature="0"
           id="path911"
           d="m 79.369578,254.03935 c -2.766436,-0.61089 -7.568867,-2.3269 -9.718385,-3.47258 -0.836221,-0.4457 -2.302944,-1.45584 -3.259383,-2.24476 -1.870075,-1.54252 -2.27842,-2.39742 -1.011375,-2.11737 2.722467,0.60172 3.649842,0.70841 5.886979,0.67728 1.382448,-0.0192 3.651954,0.051 5.04335,0.15606 2.03195,0.15344 2.682812,0.11147 3.307292,-0.21328 1.747054,-0.90855 2.518138,-2.31379 3.031956,-5.52554 l 0.324477,-2.02822 -0.966071,-1.59032 c -1.598326,-2.63113 -1.24868,-4.35298 0.956609,-4.71085 0.806988,-0.13095 1.014289,-0.0567 1.374151,0.49258 0.452938,0.69126 0.395163,1.00599 -0.761804,4.14992 -0.485138,1.31831 -0.423976,1.77109 0.67913,5.02771 1.328727,3.92271 2.581016,5.10765 6.325494,5.98532 2.11377,0.49544 3.968751,1.29601 3.968751,1.71282 0,0.43117 -1.098341,0.9801 -3.439584,1.71901 -1.236927,0.39038 -3.275748,1.05034 -4.530712,1.46659 -3.142589,1.04232 -4.41402,1.13324 -7.210875,0.51563 z m -8.895914,-26.19831 c -1.091406,-0.25866 -2.77028,-0.48168 -3.730832,-0.49562 -2.434711,-0.0353 -3.318184,-0.39179 -3.678772,-1.48438 -0.247322,-0.74939 -0.202499,-1.09776 0.28792,-2.23777 0.780679,-1.81473 2.454198,-3.24145 4.825968,-4.11424 3.194461,-1.17554 5.528469,-2.42757 7.178903,-3.85095 1.449631,-1.2502 1.662518,-1.34933 2.657004,-1.23724 0.594609,0.067 2.129425,0.61991 3.410705,1.22865 1.281276,0.60873 3.071476,1.27884 3.978222,1.48913 0.906743,0.21029 2.770431,0.9085 4.141526,1.55159 1.371095,0.64308 3.147743,1.30457 3.948107,1.46998 1.504807,0.31099 7.979775,3.19716 8.797395,3.92137 0.25466,0.22558 0.46302,0.6892 0.46302,1.03029 v 0.62015 l -3.638019,-0.0508 c -8.166735,-0.11413 -12.030546,0.0612 -13.262801,0.60173 -1.492681,0.6548 -1.686581,0.64384 -3.39508,-0.19206 -1.342057,-0.6566 -1.518524,-0.68049 -2.841049,-0.38452 -0.928182,0.20772 -1.940176,0.71586 -2.961061,1.48679 -1.37674,1.03967 -1.699543,1.16825 -2.873864,1.14472 -0.727604,-0.0146 -2.215886,-0.23813 -3.307292,-0.49678 z m 9.291389,-44.37563 c -2.274983,-2.29815 -7.724024,-7.30705 -8.587248,-7.89363 -2.326201,-1.58069 -7.066278,-1.97064 -11.374512,-0.93574 -2.800208,0.67265 -3.243039,0.68467 -5.120073,0.139 -1.763923,-0.51278 -2.762293,-0.35668 -4.412656,0.68994 -2.411254,1.52918 -3.445718,0.6934 -2.195491,-1.77381 0.936957,-1.84899 1.225365,-2.02843 2.920004,-1.81669 1.251949,0.15641 1.732125,0.0604 3.904605,-0.78097 3.534805,-1.36894 4.357771,-1.41491 7.801735,-0.43578 1.5826,0.44994 4.17639,1.12432 5.763977,1.49863 1.587588,0.37431 3.037944,0.7653 3.223012,0.86887 0.185071,0.10357 1.106167,0.92432 2.046883,1.82388 0.940715,0.89956 2.425451,1.99653 3.299415,2.4377 2.546228,1.28534 6.668127,4.24974 6.668127,4.79561 0,0.40215 -1.956625,2.63976 -2.308272,2.63976 -0.211971,0 -0.945248,-0.56555 -1.629506,-1.25677 z m 46.800277,-0.25514 c 0,-0.6617 0.0337,-0.68449 0.42818,-0.28997 0.2355,0.2355 0.34754,0.55867 0.24897,0.71815 -0.3247,0.52538 -0.67715,0.30252 -0.67715,-0.42818 z m -23.9814,-4.97039 c -0.23231,-0.60537 0.0845,-1.17163 0.80975,-1.44737 0.35993,-0.13684 2.29775,-0.28388 4.30626,-0.32676 3.20371,-0.0684 3.74086,-0.0176 4.37718,0.41401 0.39894,0.27058 0.66171,0.59491 0.58395,0.72073 -0.37772,0.61117 -3.00015,1.03627 -6.39269,1.03627 -2.89562,0 -3.5596,-0.0715 -3.68445,-0.39688 z m 37.95862,-14.29228 c -1.57394,-1.7024 -2.82755,-3.3353 -3.25616,-4.2413 -0.83337,-1.7616 -1.4787,-5.97484 -1.5988,-10.43829 -0.0806,-2.994 -0.0983,-3.07085 -1.11009,-4.80093 -0.56552,-0.96703 -1.25739,-2.43246 -1.53749,-3.25651 -0.50458,-1.48444 -0.50445,-1.50731 0.0141,-2.47511 0.75688,-1.41257 1.93889,-1.74934 3.69767,-1.0535 2.63778,1.04359 5.68892,0.12643 4.95296,-1.48883 -0.52522,-1.15273 -2.14619,-1.76205 -4.53144,-1.70336 l -2.08775,0.0514 -1.81272,-1.33325 c -0.99699,-0.73329 -2.85471,-2.0011 -4.12827,-2.81737 -2.50045,-1.60262 -3.53025,-2.82387 -3.08412,-3.65747 0.14575,-0.27234 0.55057,-0.48379 0.9262,-0.48379 1.46687,0 3.09447,-0.62301 4.00418,-1.53272 0.82044,-0.82044 0.9098,-1.04271 0.78708,-1.95768 -0.34024,-2.53664 -4.41625,-8.70596 -6.25522,-9.46769 -1.85781,-0.76953 -2.87006,0.46486 -2.55184,3.11186 0.1,0.83152 0.27367,2.64295 0.38602,4.0254 0.12843,1.58025 0.40713,2.9677 0.75058,3.73668 0.55952,1.25275 0.51111,1.72267 -0.18795,1.82447 -0.92104,0.13412 -1.61185,-0.32131 -2.41822,-1.5943 -0.52784,-0.83327 -4.2464,-3.70227 -4.79858,-3.70227 -0.25274,0 -0.81744,0.83984 -1.46768,2.18281 -1.19351,2.46497 -2.70231,4.15962 -4.52642,5.08397 -0.68259,0.34589 -1.74863,1.05295 -2.36899,1.57125 -1.93058,1.61295 -3.79052,2.00989 -9.417851,2.00989 -3.426574,0 -5.134026,0.10597 -5.865493,0.36405 -2.612438,0.92172 -11.045762,0.77007 -18.240969,-0.32802 -2.813095,-0.42931 -3.52829,-0.65243 -5.928897,-1.84962 -3.552899,-1.77184 -4.620168,-1.8212 -7.128606,-0.32967 -1.946987,1.15769 -4.458159,3.64438 -5.941873,5.88395 -2.00179,3.02157 -4.498057,11.20322 -4.938431,16.18596 -0.252606,2.8582 -0.549915,4.58008 -1.070683,6.20095 -0.380055,1.18291 -1.195143,1.16009 -1.699739,-0.0476 -1.023894,-2.45052 -2.538146,-8.31733 -3.035033,-11.7589 l -0.549044,-3.80284 0.54398,-1.63467 c 0.846899,-2.54493 2.764567,-5.66353 4.730518,-7.69299 0.986768,-1.01865 2.134965,-2.31874 2.551549,-2.88909 0.416583,-0.57036 1.290697,-1.63745 1.942476,-2.37132 1.378341,-1.55194 2.426855,-3.747 3.074484,-6.43643 0.532295,-2.21047 0.859788,-2.58454 2.058878,-2.35168 2.815833,0.54684 3.186163,0.51289 4.434194,-0.40649 0.654844,-0.4824 1.73549,-1.13301 2.401435,-1.44581 1.568829,-0.73687 1.958203,-1.61937 1.715292,-3.88763 -0.178454,-1.6664 -0.345379,-2.10537 -1.333294,-3.5063 -0.288123,-0.40858 -0.619953,-1.46612 -0.737399,-2.3501 -0.117446,-0.88398 -0.278053,-2.08348 -0.356902,-2.66557 -0.136901,-1.01063 -0.05765,-1.15603 1.758228,-3.22585 1.781815,-2.030997 2.095603,-2.261319 4.981803,-3.656661 1.694116,-0.819026 3.615994,-1.827206 4.270838,-2.2404 1.805411,-1.13918 2.899386,-1.348402 5.255149,-1.005047 1.114412,0.162428 2.324111,0.220552 2.688222,0.129166 0.36411,-0.09139 1.295371,-0.706776 2.069471,-1.367535 1.650402,-1.408759 2.490031,-1.519444 4.960842,-0.653972 0.945886,0.331323 2.71163,0.629817 4.473192,0.756181 2.280269,0.163572 3.282776,0.368582 4.630213,0.946866 0.94588,0.40595 2.3457,0.791111 3.11071,0.855914 1.30016,0.110134 1.44988,0.05887 2.29424,-0.785488 0.59249,-0.592494 0.96183,-1.260994 1.07339,-1.942825 0.78493,-4.797517 2.35089,-4.81689 7.82683,-0.09682 1.2272,1.057812 2.88613,2.20556 3.68649,2.55055 2.79085,1.202967 3.29169,1.543315 4.38627,2.980696 0.66059,0.867464 1.72359,1.822983 2.65455,2.386125 1.00929,0.61054 2.01365,1.53949 2.86964,2.65419 0.72429,0.9432 2.20797,2.54835 3.29705,3.567 4.66874,4.36679 6.49951,6.53155 7.98288,9.4392 0.80688,1.58161 1.28942,4.25384 1.2946,7.16921 0.005,2.99018 0.48559,4.32205 2.87244,7.96564 1.21849,1.86007 1.36549,2.23833 1.36549,3.5137 0,0.92905 -0.23149,1.97923 -0.66146,3.00079 -0.88626,2.10567 -0.83959,2.954 0.36169,6.57405 0.56272,1.69578 1.11021,3.49996 1.21662,4.00928 0.10642,0.50933 0.6238,1.87854 1.14975,3.04271 0.853,1.88812 0.95726,2.35949 0.96557,4.36563 0.007,1.66952 -0.14538,2.69681 -0.59109,3.98721 -1.2131,3.51209 -3.53815,7.40536 -4.40881,7.38248 -0.15467,-0.004 -1.43288,-1.25305 -2.84047,-2.77552 z m -33.35067,-37.31647 c 1.61696,-1.13257 -0.0675,-4.00289 -2.63136,-4.48388 -0.81305,-0.15253 -1.07268,-0.0687 -1.77272,0.57259 -1.45473,1.3326 -1.33269,3.52702 0.22962,4.12858 0.86605,0.33347 3.59062,0.19165 4.17446,-0.21729 z"
           style="fill:#5b5b5b;stroke-width:0.26458335" />
        <path
           inkscape:connector-curvature="0"
           id="path909"
           d="m 78.71176,253.12118 c -5.568006,-1.61605 -7.851257,-2.5196 -9.509522,-3.76324 -1.399297,-1.04942 -1.059815,-1.42339 1.800593,-1.98351 1.948524,-0.38155 3.113638,-0.45409 5.183129,-0.32267 2.118609,0.13453 2.82851,0.0869 3.439584,-0.23094 1.739135,-0.90447 2.511346,-2.31427 3.024468,-5.52166 l 0.324477,-2.02822 -0.966071,-1.59032 c -1.598326,-2.63113 -1.24868,-4.35298 0.956609,-4.71085 0.812189,-0.1318 1.013646,-0.0576 1.385687,0.51018 0.408604,0.62361 0.401407,0.7595 -0.117205,2.21321 -1.132695,3.17503 -1.127631,3.12324 -0.520303,5.32162 0.690523,2.49953 2.109004,5.547 2.949035,6.33573 0.341823,0.32094 1.75056,1.03531 3.130524,1.5875 1.607648,0.64328 2.509025,1.14654 2.509025,1.40083 0,0.48245 -1.553276,1.24161 -4.894792,2.39233 -3.377192,1.16302 -5.67653,1.26614 -8.695238,0.39001 z m -8.238096,-25.28014 c -1.091406,-0.25866 -2.77028,-0.48168 -3.730832,-0.49562 -2.430735,-0.0352 -3.318346,-0.39228 -3.676999,-1.47901 -0.230505,-0.69843 -0.20655,-1.08466 0.115006,-1.85425 0.965989,-2.31194 2.882451,-3.86944 5.692154,-4.62602 2.160254,-0.5817 4.475612,-1.87184 6.25774,-3.48687 1.669743,-1.51319 1.831277,-1.59689 2.85587,-1.47983 0.646449,0.0738 2.034445,0.66878 3.429228,1.46984 1.692026,0.97177 3.015536,1.50341 4.7625,1.91308 1.330611,0.31203 3.201356,0.89979 4.157213,1.30614 0.955855,0.40635 2.384605,0.87688 3.175,1.04562 1.502397,0.32075 7.977836,3.21757 8.779266,3.92744 0.25466,0.22558 0.46302,0.6892 0.46302,1.03029 v 0.62015 l -3.638019,-0.0508 c -8.166735,-0.11413 -12.030546,0.0612 -13.262801,0.60173 -1.492681,0.6548 -1.686581,0.64384 -3.39508,-0.19206 -1.342057,-0.6566 -1.518524,-0.68049 -2.841049,-0.38452 -0.928182,0.20772 -1.940176,0.71586 -2.961061,1.48679 -1.37674,1.03967 -1.699543,1.16825 -2.873864,1.14472 -0.727604,-0.0146 -2.215886,-0.23813 -3.307292,-0.49678 z m 8.281967,-45.46006 c -2.667799,-2.22946 -5.900717,-5.48806 -5.900717,-5.94759 0,-0.70385 0.617016,-0.53024 3.010541,0.84706 2.583831,1.4868 6.249876,4.38754 6.249876,4.94518 0,0.49262 -0.947735,1.43821 -1.441471,1.43821 -0.210727,0 -1.073931,-0.57729 -1.918229,-1.28286 z m 24.129489,-4.0088 c 0.0899,-0.14552 0.58024,-0.26459 1.08957,-0.26459 0.54998,0 0.85964,0.10745 0.76252,0.26459 -0.0899,0.14552 -0.58024,0.26458 -1.08956,0.26458 -0.54999,0 -0.85964,-0.10745 -0.76253,-0.26458 z m -47.111408,-4.8793 c -0.699435,-0.51938 -0.296653,-1.16155 1.21288,-1.93372 1.362306,-0.69687 2.319907,-0.74331 4.112487,-0.19945 2.743692,0.83243 2.59375,1.25219 -0.714523,2.0003 -2.672417,0.60432 -3.927258,0.64048 -4.610844,0.13287 z M 142.8114,163.05377 c -1.13126,-0.68983 -2.68705,-2.33321 -3.40744,-3.5993 -0.82651,-1.45258 -2.37052,-7.3101 -2.15414,-8.1722 0.13757,-0.54812 0.44991,-0.75984 1.62489,-1.10142 1.7924,-0.52106 2.53787,-0.31914 4.86091,1.31666 0.90457,0.63697 1.98687,1.29986 2.40509,1.4731 1.1361,0.47058 1.6864,1.84922 1.52272,3.8148 -0.24731,2.96992 -2.26368,6.77207 -3.5898,6.76911 -0.24347,-5.3e-4 -0.81147,-0.22588 -1.26223,-0.50075 z m -94.672223,-8.29566 c -0.53809,-0.82929 -1.91666,-5.98757 -2.280432,-8.53281 -0.600835,-4.20393 -0.603777,-4.33461 -0.126664,-5.6255 0.731394,-1.97888 2.746731,-5.28364 3.792877,-6.21958 2.601151,-2.32713 6.340682,-6.6167 7.720211,-8.85577 0.426825,-0.69276 0.958048,-1.96757 1.180495,-2.8329 0.222448,-0.86533 0.51997,-1.68885 0.661161,-1.83004 0.165892,-0.16589 0.903986,-0.13457 2.086319,0.0885 2.234806,0.42168 2.871298,0.27915 5.066067,-1.13444 2.649175,-1.70626 3.686845,-2.77395 4.670304,-4.8054 0.494665,-1.02179 1.055761,-1.97686 1.246883,-2.12238 0.817086,-0.62213 0.986026,-1.3872 0.548032,-2.48186 -0.659522,-1.6483 -0.452192,-2.18257 1.14173,-2.9421 1.634564,-0.77889 1.77937,-1.35788 0.530108,-2.11957 -0.650721,-0.39675 -1.332881,-0.52452 -2.804284,-0.52527 -3.076763,-0.002 -4.486109,-0.99708 -3.405011,-2.40517 0.725184,-0.94452 1.4447,-1.09279 3.045199,-0.62751 2.949448,0.85742 4.225592,0.39864 5.234064,-1.881698 0.376211,-0.850679 1.080895,-1.771695 1.87878,-2.455556 l 1.276773,-1.094308 2.275407,-0.0017 c 2.090343,-0.0016 2.359332,-0.06367 3.307292,-0.763499 0.567536,-0.418985 1.502534,-1.252422 2.07777,-1.852083 1.181142,-1.231295 2.219447,-1.412474 3.950245,-0.6893 0.527841,0.220547 2.750527,0.815417 4.9393,1.321935 2.188774,0.506518 4.807157,1.273105 5.818637,1.703527 2.48152,1.055982 3.53857,1.233384 4.31557,0.724272 0.78731,-0.515866 3.0303,-4.093656 3.24763,-5.180281 0.14339,-0.716926 0.2744,-0.822518 1.02055,-0.822518 0.91731,0 2.09342,0.693817 4.23718,2.499622 0.72761,0.612898 2.21589,1.716113 3.3073,2.451587 2.12321,1.430785 2.69762,2.179743 3.35385,4.37298 0.54916,1.83536 1.0754,6.58753 0.83078,7.5022 -0.10635,0.39767 -0.60455,1.14996 -1.1071,1.67176 -1.21116,1.25754 -1.75462,2.66289 -1.75462,4.5373 0,0.84676 -0.13069,1.62034 -0.29042,1.71906 -0.15979,0.0988 -0.90361,-0.42311 -1.65365,-1.16022 -2.30274,-2.26303 -2.84573,-2.26135 -4.98772,0.0154 l -1.24326,1.32148 -1.27029,-0.73812 c -3.44555,-2.00211 -3.67974,-2.07914 -4.91086,-1.6153 -0.61706,0.23249 -1.53864,0.40809 -2.04796,0.39023 -0.50933,-0.0179 -1.48684,0.005 -2.17224,0.0516 -1.001502,0.0676 -1.565681,-0.0862 -2.873239,-0.78308 -1.321657,-0.70444 -1.82707,-0.84037 -2.692808,-0.72425 -1.700228,0.22805 -1.861254,0.55177 -2.095206,4.2122 -0.114157,1.78606 -0.2648,3.72363 -0.334767,4.30571 -0.211309,1.75798 -1.652339,5.22925 -2.459035,5.92352 -0.403791,0.34752 -1.035439,1.17081 -1.403659,1.82953 -1.133526,2.02779 -1.611937,2.23913 -5.61203,2.47917 -3.348998,0.20096 -5.967495,0.0375 -9.191216,-0.57391 -1.816256,-0.34444 -2.991421,-0.87867 -4.866912,-2.21249 -2.304773,-1.63909 -3.154564,-2.02185 -4.48894,-2.02185 -0.972632,0 -1.441318,0.19816 -2.725118,1.15219 -3.456092,2.56831 -6.795981,6.19421 -8.138007,8.83489 -1.537531,3.02538 -3.650697,10.52585 -4.25378,15.09836 -0.348713,2.6439 -0.714126,4.01873 -1.068135,4.01873 -0.06429,0 -0.290704,-0.26789 -0.503151,-0.59532 z m 33.711571,-46.86865 c 0,-0.48155 -1.371484,-1.11841 -2.182813,-1.01362 -1.310103,0.16922 -0.761412,1.24947 0.727605,1.43249 0.985493,0.12113 1.455208,-0.0141 1.455208,-0.41887 z m 54.768752,33.17647 c -0.21828,-0.14107 -0.27781,-0.25648 -0.13229,-0.25648 0.14552,0 0.44318,0.11541 0.66146,0.25648 0.21828,0.14106 0.27781,0.25647 0.13229,0.25647 -0.14552,0 -0.44318,-0.11541 -0.66146,-0.25647 z"
           style="fill:#191919;fill-opacity:1;stroke-width:0.26458335" />
        <path
           inkscape:connector-curvature="0"
           id="path907"
           d="m 142.89897,161.48358 c -1.34098,-1.38901 -2,-2.37293 -2.94763,-4.40081 -2.06234,-4.41329 -2.19737,-5.60123 -0.70685,-6.21863 1.09797,-0.45479 2.08412,-0.15977 4.0181,1.20207 0.92368,0.65042 2.09881,1.2989 2.61139,1.44108 1.45396,0.40328 1.6567,0.63777 1.7949,2.07604 0.15602,1.62371 -0.23924,3.31393 -1.29133,5.52199 -1.18124,2.47916 -1.42477,2.50564 -3.47858,0.37826 z M 46.713813,146.02416 c -0.589551,-0.71037 -1.364065,-2.72694 -1.369756,-3.56639 -0.01616,-2.38323 3.041766,-7.27899 5.074689,-8.12461 0.625465,-0.26017 1.340606,-0.49835 1.589201,-0.52927 0.59698,-0.0743 0.808166,0.52495 0.326031,0.92509 -0.209632,0.17398 -0.381148,0.45179 -0.381148,0.61736 0,0.16557 -0.312854,0.63843 -0.69523,1.05081 -0.651961,0.70311 -0.686262,0.86761 -0.551138,2.64313 0.244789,3.21647 -0.484171,5.1306 -2.396388,6.2925 -0.543099,0.33001 -1.057494,0.70122 -1.1431,0.82493 -0.08561,0.12371 -0.289528,0.0636 -0.453161,-0.13355 z m 7.658868,-14.81505 c -0.441892,-0.44189 -0.368572,-1.28352 0.184947,-2.12297 0.443938,-0.67327 3.505394,-3.10146 3.910301,-3.10146 0.3234,0 0.876362,-0.9232 0.88482,-1.47726 0.0046,-0.30317 0.09413,-0.63694 0.198905,-0.74171 0.104769,-0.10477 0.194065,-0.45203 0.198436,-0.7717 0.01003,-0.73406 0.869006,-0.86286 2.52149,-0.37807 1.597885,0.46877 1.54014,1.01188 -0.238728,2.24534 -0.960464,0.66598 -1.662136,1.42508 -2.138966,2.31402 -1.054094,1.96512 -4.830695,4.72432 -5.521205,4.03381 z m 23.749318,-2.65316 c -0.579888,-0.44347 -0.456751,-2.92149 0.176646,-3.55489 1.025784,-1.02578 2.483792,-1.37667 4.015124,-0.96629 0.513561,0.13763 0.595312,0.33569 0.595312,1.44229 0,1.01196 -0.111707,1.34253 -0.529166,1.56595 -0.291042,0.15576 -0.529167,0.45455 -0.529167,0.66397 0,0.91792 -2.803835,1.55631 -3.728749,0.84897 z m -5.400694,-0.55754 c -0.582809,-0.18267 -1.773434,-0.86645 -2.645834,-1.5195 -0.8724,-0.65306 -2.538682,-1.58764 -3.702849,-2.07685 -2.634364,-1.10701 -2.784663,-1.23839 -1.829022,-1.59877 0.423878,-0.15985 1.112851,-0.46016 1.531046,-0.66735 0.418197,-0.2072 1.65449,-0.56141 2.747317,-0.78714 1.092827,-0.22573 2.226617,-0.53868 2.519532,-0.69544 0.292912,-0.15676 1.052798,-0.22638 1.688634,-0.15471 0.707552,0.0798 1.228834,0.0144 1.343631,-0.1684 0.384479,-0.61227 0.531598,1.77954 0.163629,2.66022 -0.317225,0.75922 -0.312203,1.00787 0.03724,1.8442 0.222144,0.53167 0.346993,1.02357 0.277442,1.09313 -0.06955,0.0695 -0.0177,0.32967 0.115234,0.57805 0.27354,0.51112 0.05874,1.66038 -0.272105,1.45591 -0.118923,-0.0735 -0.291008,-0.0126 -0.38241,0.13527 -0.200549,0.32449 -0.251601,0.32133 -1.591485,-0.0986 z m 7.144938,-6.73227 c -0.07283,-0.0728 -0.340722,-0.15102 -0.595312,-0.17375 -0.466191,-0.0416 -0.94333,-0.16473 -2.79467,-0.72108 -0.864785,-0.25988 -0.987285,-0.38913 -0.857782,-0.90511 0.377616,-1.50454 0.70144,-1.94657 1.789536,-2.44275 1.248918,-0.56951 2.326066,-1.40795 2.326066,-1.81057 0,-0.14228 0.238125,-0.47419 0.529167,-0.73758 0.291042,-0.26339 0.529167,-0.63903 0.529167,-0.83476 0,-0.68269 0.882224,-0.34808 1.852083,0.70247 1.023041,1.10815 1.894533,1.33743 2.945553,0.77494 0.669076,-0.35807 1.724028,0.26913 2.095342,1.24576 0.200403,0.5271 0.141401,0.82933 -0.276474,1.41618 -0.47258,0.66368 -0.64975,0.73018 -1.604251,0.60216 -1.266536,-0.16988 -2.257525,0.27642 -2.76062,1.24327 -0.655984,1.26067 -1.293098,1.77833 -2.185488,1.77574 -0.472942,-0.001 -0.919485,-0.0621 -0.992317,-0.13492 z m 11.509505,-12.53386 c -1.581573,-0.32069 -3.33937,-1.16062 -6.191935,-2.95869 -2.338486,-1.47404 -2.370323,-1.48475 -4.412872,-1.48475 -1.517581,0 -2.166485,-0.10909 -2.473169,-0.41577 -0.527264,-0.52727 -0.538044,-1.79921 -0.0189,-2.23006 0.218281,-0.18116 0.396875,-0.44237 0.396875,-0.58046 0,-0.43067 2.21012,-2.219172 3.683675,-2.980956 0.498054,-0.257479 2.057098,-1.585555 3.464544,-2.951281 2.814545,-2.731114 3.345299,-2.935864 5.392777,-2.080373 0.530175,0.221521 2.062764,0.650172 3.405752,0.952557 2.327592,0.524077 2.500974,0.612957 3.707125,1.900378 1.346821,1.437571 1.6728,2.173364 1.376476,3.106991 -0.216601,0.68245 -1.604021,2.082484 -2.57697,2.600404 -0.95548,0.50862 -2.506152,0.17443 -3.21055,-0.69192 -1.517878,-1.866847 -2.509097,-2.714925 -3.173159,-2.714925 -0.778303,0 -1.75092,0.831222 -1.75092,1.49638 0,0.666045 1.129229,2.004855 2.417739,2.866475 1.462241,0.97779 1.935128,1.52898 2.748238,3.2033 0.70965,1.46127 0.85059,2.70938 0.324128,2.87029 -0.905717,0.27685 -2.033876,0.31038 -3.108855,0.0924 z m -22.837477,-5.60182 c -0.156448,-0.4077 0.285599,-0.95829 0.769377,-0.95829 0.372512,0 0.606806,0.52412 0.443534,0.99219 -0.155564,0.44597 -1.038233,0.4213 -1.212911,-0.0339 z m 43.913259,-6.37863 c -0.72695,-0.726959 0.0631,-3.046322 1.03763,-3.046322 0.53465,0 1.87321,1.249401 1.89884,1.772352 0.0521,1.06253 -0.50956,1.667231 -1.54848,1.667231 -0.5471,0 -1.17169,-0.176968 -1.38799,-0.393261 z"
           style="fill:#000000;fill-opacity:1;stroke-width:0.26458335" />
      </g>
    </g>
  </g>
</svg>
